<svg width="81" height="80" viewBox="0 0 81 80" fill="none" xmlns="http://www.w3.org/2000/svg">
<path d="M66.0469 56.6304H61.9844V53.3591C61.9844 53.1105 61.8856 52.872 61.7098 52.6962C61.534 52.5204 61.2955 52.4216 61.0469 52.4216C60.7982 52.4216 60.5598 52.5204 60.384 52.6962C60.2081 52.872 60.1094 53.1105 60.1094 53.3591V56.6304H52.6094V31.9429H60.1094V48.906C60.1094 49.1547 60.2081 49.3931 60.384 49.5689C60.5598 49.7447 60.7982 49.8435 61.0469 49.8435C61.2955 49.8435 61.534 49.7447 61.7098 49.5689C61.8856 49.3931 61.9844 49.1547 61.9844 48.906V31.0054C61.9844 30.7568 61.8856 30.5183 61.7098 30.3425C61.534 30.1667 61.2955 30.0679 61.0469 30.0679H51.6719C51.4232 30.0679 51.1848 30.1667 51.009 30.3425C50.8331 30.5183 50.7344 30.7568 50.7344 31.0054V56.6304H46.125V37.8804C46.125 37.6318 46.0262 37.3933 45.8504 37.2175C45.6746 37.0417 45.4361 36.9429 45.1875 36.9429H35.8125C35.5639 36.9429 35.3254 37.0417 35.1496 37.2175C34.9738 37.3933 34.875 37.6318 34.875 37.8804V56.6304H30.2656V43.1929C30.2656 42.9443 30.1669 42.7058 29.991 42.53C29.8152 42.3542 29.5768 42.2554 29.3281 42.2554H19.9531C19.7045 42.2554 19.466 42.3542 19.2902 42.53C19.1144 42.7058 19.0156 42.9443 19.0156 43.1929V56.6304H15.8906V52.031C15.8906 51.7824 15.7919 51.5439 15.616 51.3681C15.4402 51.1923 15.2018 51.0935 14.9531 51.0935C14.7045 51.0935 14.466 51.1923 14.2902 51.3681C14.1144 51.5439 14.0156 51.7824 14.0156 52.031V63.1929C14.0156 63.4415 14.1144 63.68 14.2902 63.8558C14.466 64.0316 14.7045 64.1304 14.9531 64.1304H21.125C21.3736 64.1304 21.6121 64.0316 21.7879 63.8558C21.9637 63.68 22.0625 63.4415 22.0625 63.1929C22.0625 62.9443 21.9637 62.7058 21.7879 62.53C21.6121 62.3542 21.3736 62.2554 21.125 62.2554H15.8906V58.5054H65.1094V62.2554H24.875C24.6264 62.2554 24.3879 62.3542 24.2121 62.53C24.0363 62.7058 23.9375 62.9443 23.9375 63.1929C23.9375 63.4415 24.0363 63.68 24.2121 63.8558C24.3879 64.0316 24.6264 64.1304 24.875 64.1304H66.0469C66.2955 64.1304 66.534 64.0316 66.7098 63.8558C66.8856 63.68 66.9844 63.4415 66.9844 63.1929V57.5679C66.9844 57.4448 66.9601 57.3229 66.913 57.2091C66.8659 57.0954 66.7968 56.992 66.7098 56.905C66.6227 56.8179 66.5194 56.7489 66.4056 56.7018C66.2919 56.6546 66.17 56.6304 66.0469 56.6304ZM20.8906 56.6304V44.1304H28.3906V56.6304H20.8906ZM36.75 56.6304V38.8179H44.25V56.6304H36.75ZM18.9588 39.1354C19.2412 39.3617 19.5924 39.485 19.9544 39.4848C20.0158 39.4848 20.0771 39.4813 20.1381 39.4741C23.0218 39.1287 25.8696 38.5308 28.6487 37.6873C31.424 36.867 34.1304 35.8298 36.7431 34.5854C37.7431 34.1429 38.7019 33.6198 39.63 33.1141C39.9594 32.9348 40.2894 32.7548 40.6213 32.5785C40.6419 32.5673 40.6625 32.556 40.6838 32.5429C41.0425 32.316 41.4056 32.0948 41.7694 31.8741C42.6362 31.3466 43.5325 30.8016 44.3375 30.196C46.4994 28.6983 48.5327 27.0229 50.4162 25.1873L52.755 27.526C52.8782 27.6492 53.0334 27.7357 53.203 27.7756C53.3727 27.8156 53.5501 27.8074 53.7154 27.7521C53.8807 27.6968 54.0272 27.5965 54.1387 27.4625C54.2501 27.3285 54.322 27.1661 54.3462 26.9935L55.76 16.9373C55.7802 16.7935 55.7667 16.647 55.7206 16.5094C55.6746 16.3717 55.5972 16.2466 55.4945 16.144C55.3919 16.0414 55.2668 15.9639 55.1291 15.9179C54.9915 15.8718 54.845 15.8583 54.7012 15.8785L49.6725 16.5854L44.6437 17.2929C44.4712 17.3171 44.3088 17.389 44.1748 17.5005C44.0408 17.6119 43.9405 17.7585 43.8852 17.9238C43.8299 18.089 43.8217 18.2665 43.8616 18.4361C43.9016 18.6057 43.988 18.7609 44.1112 18.8841L46.4863 21.2591C44.9024 23.0473 43.1709 24.699 41.31 26.1966C40.6222 26.7772 39.9056 27.3229 39.1631 27.8316C38.8237 28.0735 38.4837 28.3154 38.1481 28.5641C37.8369 28.7596 37.5267 28.9571 37.2175 29.1566C36.4194 29.6691 35.5925 30.1998 34.7344 30.6566C32.3955 31.9855 29.9557 33.1282 27.4375 34.0741C24.9149 35.0428 22.3125 35.7893 19.66 36.3054C19.263 36.3819 18.9095 36.6051 18.6696 36.9306C18.4298 37.256 18.3212 37.6598 18.3656 38.0616C18.3886 38.2709 18.4528 38.4736 18.5546 38.6579C18.6564 38.8423 18.7938 39.0045 18.9588 39.1354ZM28.0956 35.8291C30.6974 34.8516 33.2185 33.6713 35.6356 32.2991C36.5413 31.8179 37.3994 31.2673 38.23 30.7366C38.5425 30.5354 38.855 30.3335 39.1725 30.136C39.1941 30.1232 39.2149 30.1092 39.235 30.0941C39.5706 29.8441 39.9106 29.6035 40.25 29.3623C41.0156 28.8173 41.8069 28.2548 42.5 27.6454C44.6317 25.9173 46.608 24.0058 48.4062 21.9329L48.4738 21.8585C48.6352 21.6802 48.7219 21.4467 48.716 21.2062C48.71 20.9658 48.6119 20.7368 48.4419 20.5666L46.7663 18.8873L53.73 17.9085L52.75 24.8716L51.0938 23.2148C50.9202 23.0412 50.6856 22.9426 50.4402 22.9402C50.1948 22.9377 49.9582 23.0316 49.7812 23.2016C47.7673 25.2101 45.582 27.0389 43.25 28.6673C42.4775 29.2473 41.6588 29.7454 40.7919 30.2716C40.4288 30.4929 40.0663 30.7129 39.7081 30.9391C39.3813 31.1129 39.0556 31.291 38.7306 31.4679C37.7931 31.9779 36.9106 32.4598 35.9588 32.8823C33.4277 34.0886 30.8056 35.094 28.1169 35.8891C27.8315 35.9725 27.5488 36.0539 27.2688 36.1335C27.5438 36.0343 27.8192 35.9329 28.095 35.8291H28.0956ZM14.0156 45.6248V35.4685C14.0156 35.2199 14.1144 34.9814 14.2902 34.8056C14.466 34.6298 14.7045 34.531 14.9531 34.531C15.2018 34.531 15.4402 34.6298 15.616 34.8056C15.7919 34.9814 15.8906 35.2199 15.8906 35.4685V45.6248C15.8906 45.8734 15.7919 46.1119 15.616 46.2877C15.4402 46.4635 15.2018 46.5623 14.9531 46.5623C14.7045 46.5623 14.466 46.4635 14.2902 46.2877C14.1144 46.1119 14.0156 45.8734 14.0156 45.6248ZM14.0156 27.6766V16.8066C14.0156 16.558 14.1144 16.3195 14.2902 16.1437C14.466 15.9679 14.7045 15.8691 14.9531 15.8691C15.2018 15.8691 15.4402 15.9679 15.616 16.1437C15.7919 16.3195 15.8906 16.558 15.8906 16.8066V27.6766C15.8906 27.7998 15.8664 27.9217 15.8193 28.0354C15.7721 28.1491 15.7031 28.2525 15.616 28.3396C15.529 28.4266 15.4256 28.4957 15.3119 28.5428C15.1981 28.5899 15.0762 28.6141 14.9531 28.6141C14.83 28.6141 14.7081 28.5899 14.5944 28.5428C14.4806 28.4957 14.3773 28.4266 14.2902 28.3396C14.2032 28.2525 14.1341 28.1491 14.087 28.0354C14.0399 27.9217 14.0156 27.7998 14.0156 27.6766Z" fill="#7939EE"/>
</svg>
