<svg width="81" height="80" viewBox="0 0 81 80" fill="none" xmlns="http://www.w3.org/2000/svg">
<path d="M59.8827 29.5118C59.8827 19.1243 51.0077 10.3486 40.5002 10.3486C29.9927 10.3486 21.1177 19.1249 21.1177 29.5118C21.1177 39.043 24.5464 46.913 30.4195 51.2074C29.9962 51.3663 29.6108 51.6122 29.2883 51.9293C28.8976 52.3207 28.6162 52.8076 28.4722 53.3416C28.3282 53.8756 28.3265 54.438 28.4674 54.9728C28.6083 55.5076 28.8869 55.9962 29.2753 56.3899C29.6638 56.7836 30.1486 57.0687 30.6814 57.2168C30.4637 57.6318 30.3419 58.0904 30.325 58.5588C30.3082 59.0271 30.3966 59.4933 30.5839 59.923C30.7711 60.3526 31.0524 60.7347 31.407 61.0412C31.7616 61.3476 32.1804 61.5706 32.6327 61.6936V61.7843C32.6327 62.8174 32.8362 63.8403 33.2315 64.7948C33.6269 65.7492 34.2063 66.6165 34.9368 67.347C35.6673 68.0775 36.5346 68.657 37.489 69.0523C38.4435 69.4477 39.4665 69.6511 40.4995 69.6511C41.5326 69.6511 42.5556 69.4477 43.5101 69.0523C44.4645 68.657 45.3318 68.0775 46.0623 67.347C46.7928 66.6165 47.3722 65.7492 47.7676 64.7948C48.1629 63.8403 48.3664 62.8174 48.3664 61.7843V61.6936C49.0336 61.5131 49.6222 61.1169 50.0405 60.5668C50.4588 60.0166 50.6833 59.3435 50.6789 58.6524C50.6758 58.1514 50.5528 57.6585 50.3202 57.2149C50.9889 57.0353 51.5793 56.6391 51.9989 56.0882C52.4184 55.5374 52.6435 54.8629 52.6389 54.1705C52.6372 53.526 52.4394 52.8972 52.0718 52.3678C51.7042 51.8385 51.1841 51.4335 50.5808 51.2068C56.4533 46.9149 59.8827 39.0443 59.8827 29.5118ZM40.5002 67.7755C38.9197 67.7731 37.4039 67.1472 36.2823 66.0337C35.1606 64.9202 34.5235 63.4091 34.5096 61.8286H46.4908C46.4768 63.4091 45.8398 64.9202 44.7181 66.0337C43.5964 67.1472 42.0807 67.7731 40.5002 67.7755ZM48.4258 59.5693C48.1921 59.8012 47.8798 59.9368 47.5508 59.9493C47.5095 59.9423 47.4677 59.9381 47.4258 59.9368H33.5708C33.5302 59.9383 33.4897 59.9424 33.4496 59.9493C33.1071 59.9392 32.7824 59.7944 32.5462 59.5462C32.3099 59.2981 32.1812 58.9667 32.1879 58.6242C32.1947 58.2816 32.3364 57.9556 32.5822 57.717C32.8281 57.4783 33.1582 57.3464 33.5008 57.3499H47.5002C47.7571 57.3503 48.0082 57.4265 48.222 57.5692C48.4357 57.7118 48.6025 57.9144 48.7015 58.1515C48.8004 58.3886 48.8271 58.6497 48.7782 58.9019C48.7293 59.1542 48.6069 59.3863 48.4264 59.5693H48.4258ZM50.3858 55.0899C50.1402 55.3358 49.8071 55.4742 49.4595 55.4749H31.5414C31.368 55.4787 31.1956 55.4478 31.0343 55.3841C30.873 55.3203 30.726 55.225 30.602 55.1037C30.4781 54.9824 30.3795 54.8376 30.3123 54.6777C30.245 54.5178 30.2104 54.3461 30.2104 54.1727C30.2104 53.9992 30.245 53.8275 30.3123 53.6677C30.3795 53.5078 30.4781 53.363 30.602 53.2417C30.726 53.1204 30.873 53.0251 31.0343 52.9613C31.1956 52.8976 31.368 52.8667 31.5414 52.8705H49.4589C49.7159 52.8709 49.967 52.9472 50.1807 53.0898C50.3944 53.2324 50.5613 53.435 50.6602 53.6721C50.7592 53.9092 50.7859 54.1703 50.7369 54.4226C50.688 54.6748 50.5656 54.907 50.3852 55.0899H50.3858ZM47.3858 50.9955H33.6139C26.9589 47.538 22.9927 39.528 22.9927 29.5118C22.9927 20.1405 31.0102 12.2236 40.5002 12.2236C49.9902 12.2236 58.0077 20.1411 58.0077 29.5118C58.0077 39.528 54.0414 47.538 47.3864 50.9949L47.3858 50.9955ZM26.7427 29.5118C26.7427 29.7604 26.6439 29.9989 26.4681 30.1747C26.2923 30.3505 26.0538 30.4493 25.8052 30.4493C25.5565 30.4493 25.3181 30.3505 25.1423 30.1747C24.9664 29.9989 24.8677 29.7604 24.8677 29.5118C24.8977 26.7223 25.6809 23.9927 27.1344 21.6116C28.5879 19.2306 30.6578 17.2865 33.1252 15.9849C33.3438 15.8664 33.6006 15.8396 33.839 15.9103C34.0774 15.9811 34.2779 16.1437 34.3964 16.3624C34.5149 16.581 34.5418 16.8378 34.471 17.0762C34.4002 17.3146 34.2376 17.5151 34.0189 17.6336C31.8485 18.7743 30.0266 20.4803 28.7458 22.5711C27.465 24.662 26.7729 27.06 26.7427 29.5118ZM49.6658 29.8868H48.1971C48.1639 29.7999 48.1296 29.7136 48.0933 29.628L49.1302 28.5911C49.273 28.4484 49.3863 28.2789 49.4637 28.0924C49.541 27.9058 49.5808 27.7059 49.5808 27.5039C49.5808 27.302 49.541 27.1021 49.4637 26.9155C49.3863 26.729 49.273 26.5595 49.1302 26.4168L47.0052 24.2918C46.7166 24.0039 46.3256 23.8422 45.918 23.8422C45.5104 23.8422 45.1194 24.0039 44.8308 24.2918L43.7933 25.3293C43.7079 25.2934 43.6216 25.2588 43.5346 25.2255V23.7568C43.5341 23.3491 43.3719 22.9584 43.0837 22.6701C42.7954 22.3819 42.4047 22.2198 41.997 22.2193H39.0002C38.5926 22.2198 38.2018 22.3819 37.9135 22.6701C37.6253 22.9584 37.4632 23.3491 37.4627 23.7568V25.3749L37.3127 25.4374L36.1683 24.2936C35.8796 24.0059 35.4887 23.8443 35.0811 23.8443C34.6735 23.8443 34.2826 24.0059 33.9939 24.2936L31.8689 26.4186C31.7262 26.5614 31.6129 26.7309 31.5356 26.9174C31.4584 27.104 31.4186 27.3039 31.4186 27.5058C31.4186 27.7077 31.4584 27.9077 31.5356 28.0942C31.6129 28.2807 31.7262 28.4502 31.8689 28.593L33.1539 29.8786L33.1502 29.8893H31.3339C30.9263 29.8898 30.5355 30.0519 30.2473 30.3401C29.9591 30.6284 29.7969 31.0191 29.7964 31.4268V34.4268C29.7969 34.8344 29.9591 35.2252 30.2473 35.5134C30.5355 35.8016 30.9263 35.9638 31.3339 35.9643H33.1652L31.8696 37.2599C31.5815 37.5484 31.4197 37.9394 31.4197 38.3471C31.4197 38.7547 31.5815 39.1458 31.8696 39.4343L33.9945 41.5593C34.2832 41.847 34.6742 42.0086 35.0817 42.0086C35.4893 42.0086 35.8803 41.847 36.1689 41.5593L37.4646 40.2636V42.0949C37.465 42.5025 37.6272 42.8933 37.9154 43.1815C38.2037 43.4697 38.5944 43.6319 39.0021 43.6324H42.002C42.4097 43.6319 42.8005 43.4697 43.0887 43.1815C43.3769 42.8933 43.5391 42.5025 43.5395 42.0949V40.2755L43.5502 40.2718L44.8358 41.558C45.1245 41.8457 45.5154 42.0073 45.923 42.0073C46.3306 42.0073 46.7215 41.8457 47.0102 41.558L49.1352 39.433C49.4232 39.1445 49.585 38.7535 49.585 38.3458C49.585 37.9381 49.4232 37.5471 49.1352 37.2586L47.9914 36.1149C48.0148 36.0645 48.0375 36.0138 48.0595 35.963H49.6714C50.079 35.9625 50.4698 35.8004 50.7581 35.5121C51.0463 35.2239 51.2084 34.8331 51.2089 34.4255V31.4255C51.2085 31.2234 51.1683 31.0233 51.0906 30.8367C51.0128 30.65 50.8991 30.4806 50.7558 30.3379C50.6126 30.1953 50.4427 30.0822 50.2558 30.0052C50.0688 29.9283 49.8686 29.8888 49.6664 29.8893L49.6658 29.8868ZM49.3283 34.0861H47.8283C47.5196 34.0872 47.2184 34.1808 46.9635 34.3548C46.7086 34.5288 46.5117 34.7753 46.3983 35.0624C46.3408 35.2057 46.2783 35.3463 46.2108 35.4843C46.0649 35.7738 46.0137 36.1019 46.0643 36.4222C46.1148 36.7424 46.2647 37.0387 46.4927 37.2693L47.5677 38.3443L45.9221 39.9899L44.7189 38.7868C44.5018 38.5711 44.2255 38.4248 43.9251 38.3662C43.6247 38.3077 43.3137 38.3396 43.0314 38.458C42.9214 38.5034 42.8095 38.5451 42.6958 38.583C42.393 38.6889 42.1309 38.8867 41.946 39.1488C41.7611 39.4108 41.6627 39.7241 41.6645 40.0449V41.7511H39.3383V39.903C39.3376 39.5952 39.2444 39.2946 39.0707 39.0404C38.8971 38.7862 38.6511 38.59 38.3645 38.4774C38.2839 38.4449 38.2045 38.4111 38.1245 38.3743C37.8397 38.2414 37.5209 38.1993 37.2113 38.2538C36.9017 38.3082 36.6164 38.4565 36.3939 38.6786L35.0814 39.9911L33.4358 38.3449L34.7483 37.0324C34.9709 36.8101 35.1195 36.5247 35.1741 36.2149C35.2287 35.9051 35.1865 35.5861 35.0533 35.3011C35.0177 35.223 34.9839 35.1436 34.9508 35.0618C34.8381 34.7752 34.642 34.529 34.3878 34.3552C34.1336 34.1813 33.8331 34.0878 33.5252 34.0868H31.6721V31.7643H33.3752C33.6959 31.7662 34.0093 31.6678 34.2714 31.4829C34.5335 31.298 34.7313 31.0358 34.837 30.733C34.8762 30.6193 34.9179 30.507 34.9621 30.3961C35.0804 30.1139 35.1124 29.803 35.054 29.5026C34.9956 29.2022 34.8494 28.9259 34.6339 28.7086L33.4302 27.5049L35.0758 25.8593L36.1508 26.9343C36.3814 27.1622 36.6777 27.312 36.9979 27.3625C37.3182 27.4131 37.6462 27.3619 37.9358 27.2161C38.0737 27.1478 38.2146 27.0853 38.3583 27.0286C38.6452 26.9153 38.8915 26.7185 39.0655 26.4637C39.2394 26.2089 39.3329 25.9078 39.3339 25.5993V24.0993H41.6583V25.4686C41.6606 25.7898 41.7627 26.1023 41.9503 26.3629C42.138 26.6236 42.402 26.8195 42.7058 26.9236C42.8802 26.9861 43.052 27.053 43.2189 27.1293C43.5042 27.2627 43.8237 27.305 44.1339 27.2504C44.4441 27.1958 44.73 27.047 44.9527 26.8243L45.9158 25.8611L47.5614 27.5068L46.5983 28.4699C46.3757 28.6926 46.227 28.9785 46.1724 29.2887C46.1179 29.5988 46.1601 29.9183 46.2933 30.2036C46.3695 30.3711 46.437 30.5424 46.4989 30.7174C46.6031 31.0211 46.799 31.285 47.0597 31.4726C47.3203 31.6601 47.6328 31.7621 47.9539 31.7643H49.3246L49.3283 34.0861ZM40.5002 28.6755C39.6596 28.6755 38.8379 28.9248 38.139 29.3918C37.4401 29.8588 36.8954 30.5225 36.5737 31.2991C36.252 32.0757 36.1679 32.9302 36.3318 33.7546C36.4958 34.5791 36.9006 35.3363 37.495 35.9307C38.0893 36.5251 38.8466 36.9299 39.671 37.0938C40.4955 37.2578 41.35 37.1737 42.1266 36.852C42.9032 36.5303 43.5669 35.9856 44.0339 35.2867C44.5009 34.5878 44.7502 33.7661 44.7502 32.9255C44.7487 31.7988 44.3004 30.7187 43.5037 29.9219C42.707 29.1252 41.6269 28.677 40.5002 28.6755ZM40.5002 35.3005C40.0304 35.3005 39.5713 35.1612 39.1807 34.9002C38.7901 34.6393 38.4857 34.2684 38.306 33.8344C38.1262 33.4004 38.0792 32.9229 38.1708 32.4622C38.2624 32.0015 38.4886 31.5783 38.8208 31.2461C39.1529 30.914 39.5761 30.6878 40.0368 30.5961C40.4975 30.5045 40.9751 30.5515 41.409 30.7313C41.843 30.9111 42.2139 31.2155 42.4749 31.606C42.7359 31.9966 42.8752 32.4558 42.8752 32.9255C42.8747 33.5554 42.6244 34.1594 42.1791 34.605C41.7339 35.0506 41.1301 35.3014 40.5002 35.3024V35.3005Z" fill="white"/>
</svg>
