<svg width="176" height="32" viewBox="0 0 176 32" fill="none" xmlns="http://www.w3.org/2000/svg">
<path d="M4.01233 25.0935V20.7523H8.97842C10.2282 20.7523 11.3354 20.5659 12.3001 20.1932C13.2867 19.7986 14.1199 19.2504 14.7996 18.5488C15.4793 17.8472 15.9945 17.025 16.3453 16.0822C16.7181 15.1175 16.9044 14.0541 16.9044 12.8921C16.9044 11.6862 16.7181 10.6119 16.3453 9.66906C15.9945 8.70435 15.4793 7.88215 14.7996 7.20247C14.1199 6.52278 13.2867 6.00754 12.3001 5.65673C11.3354 5.30593 10.2282 5.13052 8.97842 5.13052H4.01233V0.789313H8.68242C10.853 0.789313 12.7496 1.10723 14.372 1.74306C15.9945 2.3789 17.3429 3.25591 18.4173 4.3741C19.4916 5.47037 20.2919 6.73107 20.8181 8.15622C21.3662 9.55944 21.6403 11.0175 21.6403 12.5303V13.2539C21.6403 14.7009 21.3662 16.1261 20.8181 17.5293C20.2919 18.9325 19.4916 20.2042 18.4173 21.3443C17.3429 22.4844 15.9945 23.3943 14.372 24.074C12.7496 24.7537 10.853 25.0935 8.68242 25.0935H4.01233ZM0 25.0935V0.789313H4.67009V25.0935H0Z" fill="#7939EE"/>
<path d="M26.3155 24.962V7.1038H30.8869V24.962H26.3155ZM23.816 10.5242V7.1038H30.8869V10.5242H23.816ZM27.9928 4.96608C27.0939 4.96608 26.4251 4.73587 25.9866 4.27544C25.5701 3.79308 25.3618 3.2011 25.3618 2.49949C25.3618 1.75403 25.5701 1.15108 25.9866 0.690648C26.4251 0.230216 27.0939 0 27.9928 0C28.8917 0 29.5495 0.230216 29.9661 0.690648C30.3827 1.15108 30.591 1.75403 30.591 2.49949C30.591 3.2011 30.3827 3.79308 29.9661 4.27544C29.5495 4.73587 28.8917 4.96608 27.9928 4.96608Z" fill="#7939EE"/>
<path d="M43.1277 32C42.2726 32 41.3956 31.9671 40.4967 31.9013C39.6196 31.8356 38.7974 31.7479 38.0301 31.6382V27.8232C38.8194 27.9109 39.6635 27.9877 40.5624 28.0534C41.4614 28.1411 42.3055 28.185 43.0948 28.185C44.5638 28.185 45.7478 28.0096 46.6467 27.6588C47.5676 27.308 48.2363 26.7489 48.6529 25.9815C49.0914 25.236 49.3106 24.2823 49.3106 23.1202V19.6012L50.2973 17.3649C50.2315 19.0093 49.8917 20.4125 49.2777 21.5745C48.6638 22.7146 47.8307 23.5916 46.7783 24.2055C45.7258 24.7975 44.509 25.0935 43.1277 25.0935C41.8999 25.0935 40.7817 24.8633 39.7731 24.4029C38.7865 23.9424 37.9314 23.3066 37.2079 22.4954C36.5062 21.6841 35.9581 20.7304 35.5635 19.6341C35.1688 18.5379 34.9715 17.3649 34.9715 16.1151V15.4245C34.9715 14.1747 35.1688 13.0127 35.5635 11.9383C35.98 10.8421 36.5611 9.88832 37.3065 9.07708C38.052 8.26585 38.94 7.64097 39.9704 7.20247C41.0009 6.76396 42.1411 6.54471 43.3908 6.54471C44.8598 6.54471 46.1315 6.86263 47.2058 7.49846C48.3021 8.13429 49.1572 9.05516 49.7711 10.261C50.385 11.4669 50.7248 12.9469 50.7906 14.7009L50.0013 14.8325V7.1038H53.619V22.8571C53.619 25.0277 53.2462 26.7818 52.5008 28.1192C51.7553 29.4567 50.6042 30.4323 49.0475 31.0462C47.5128 31.6821 45.5395 32 43.1277 32ZM44.4432 21.1799C45.3202 21.1799 46.1205 20.9825 46.844 20.5879C47.5676 20.1932 48.1486 19.6232 48.5871 18.8777C49.0256 18.1322 49.2449 17.2333 49.2449 16.1809V15.0298C49.2449 14.0212 49.0146 13.1662 48.5542 12.4645C48.1157 11.7629 47.5347 11.2367 46.8111 10.8859C46.0876 10.5132 45.2983 10.3268 44.4432 10.3268C43.4785 10.3268 42.6234 10.557 41.8779 11.0175C41.1544 11.456 40.5844 12.0809 40.1678 12.8921C39.7512 13.7033 39.5429 14.668 39.5429 15.7862C39.5429 16.8825 39.7512 17.8362 40.1678 18.6475C40.5844 19.4587 41.1544 20.0836 41.8779 20.5221C42.6234 20.9606 43.4785 21.1799 44.4432 21.1799Z" fill="#7939EE"/>
<path d="M59.4604 24.962V7.1038H64.0319V24.962H59.4604ZM56.9609 10.5242V7.1038H64.0319V10.5242H56.9609ZM61.1377 4.96608C60.2388 4.96608 59.5701 4.73587 59.1315 4.27544C58.715 3.79308 58.5067 3.2011 58.5067 2.49949C58.5067 1.75403 58.715 1.15108 59.1315 0.690648C59.5701 0.230216 60.2388 0 61.1377 0C62.0367 0 62.6944 0.230216 63.111 0.690648C63.5276 1.15108 63.7359 1.75403 63.7359 2.49949C63.7359 3.2011 63.5276 3.79308 63.111 4.27544C62.6944 4.73587 62.0367 4.96608 61.1377 4.96608Z" fill="#7939EE"/>
<path d="M77.0619 25.1922C75.4175 25.1922 74.0581 24.9839 72.9838 24.5673C71.9314 24.1288 71.1421 23.4053 70.6159 22.3967C70.0897 21.3662 69.8266 19.9849 69.8266 18.2528L69.8595 2.07194H74.1349L74.102 18.5488C74.102 19.4258 74.3322 20.1055 74.7926 20.5879C75.275 21.0483 75.9547 21.2785 76.8317 21.2785H79.6272V25.1922H77.0619ZM66.9982 10.4584V7.1038H79.6272V10.4584H66.9982Z" fill="#7939EE"/>
<path d="M94.2199 24.962V19.667H93.4635V13.7801C93.4635 12.7496 93.2114 11.9822 92.7071 11.4779C92.2028 10.9736 91.4245 10.7215 90.372 10.7215C89.8239 10.7215 89.1661 10.7324 88.3988 10.7544C87.6314 10.7763 86.853 10.8092 86.0637 10.853C85.2963 10.875 84.6057 10.9078 83.9918 10.9517V7.07092C84.496 7.02707 85.0661 6.98321 85.7019 6.93936C86.3378 6.89551 86.9846 6.87359 87.6423 6.87359C88.322 6.85166 88.9579 6.8407 89.5498 6.8407C91.3916 6.8407 92.9154 7.08188 94.1213 7.56423C95.3491 8.04659 96.2699 8.80302 96.8839 9.83351C97.5197 10.864 97.8376 12.2124 97.8376 13.8787V24.962H94.2199ZM88.4645 25.4224C87.1709 25.4224 86.0308 25.1922 85.0442 24.7318C84.0795 24.2713 83.3231 23.6136 82.7749 22.7585C82.2487 21.9034 81.9856 20.8729 81.9856 19.667C81.9856 18.3515 82.3035 17.2771 82.9394 16.444C83.5971 15.6108 84.507 14.986 85.6691 14.5694C86.853 14.1528 88.2343 13.9445 89.8129 13.9445H93.9568V16.6742H89.7472C88.6947 16.6742 87.8835 16.9373 87.3135 17.4635C86.7653 17.9678 86.4913 18.6256 86.4913 19.4368C86.4913 20.248 86.7653 20.9058 87.3135 21.4101C87.8835 21.9144 88.6947 22.1665 89.7472 22.1665C90.383 22.1665 90.964 22.0569 91.4902 21.8376C92.0384 21.5964 92.4878 21.2018 92.8386 20.6536C93.2114 20.0836 93.4197 19.3162 93.4635 18.3515L94.5817 19.6341C94.4721 20.8839 94.1651 21.9363 93.6608 22.7914C93.1785 23.6465 92.4988 24.3042 91.6218 24.7646C90.7667 25.2032 89.7143 25.4224 88.4645 25.4224Z" fill="#7939EE"/>
<path d="M102.965 24.962V0.953753H107.536V24.962H102.965ZM100.728 4.3741V0.953753H107.536V4.3741H100.728Z" fill="#7939EE"/>
<path d="M112.031 24.962V19.6999H117.162V24.962H112.031Z" fill="#7939EE"/>
<path d="M125.961 16.8058V12.7605H130.631C131.574 12.7605 132.363 12.5742 132.999 12.2014C133.657 11.8287 134.15 11.3135 134.479 10.6557C134.83 9.99794 135.005 9.24152 135.005 8.38643C135.005 7.53134 134.83 6.77492 134.479 6.11716C134.15 5.4594 133.657 4.95512 132.999 4.60432C132.363 4.23159 131.574 4.04522 130.631 4.04522H125.961V0H130.236C132.254 0 133.964 0.328879 135.367 0.986638C136.792 1.6444 137.877 2.58719 138.623 3.815C139.368 5.0209 139.741 6.45701 139.741 8.12333V8.64954C139.741 10.3159 139.368 11.7629 138.623 12.9907C137.877 14.1966 136.792 15.1394 135.367 15.8191C133.964 16.4769 132.254 16.8058 130.236 16.8058H125.961ZM121.949 24.1727V0H126.619V24.1727H121.949Z" fill="#2A62FE"/>
<path d="M143.362 24.1727V6.31449H146.98V13.8787H146.881C146.881 11.3135 147.43 9.37307 148.526 8.05755C149.622 6.74203 151.234 6.08427 153.36 6.08427H154.018V10.0637H152.768C151.234 10.0637 150.039 10.4803 149.184 11.3135C148.35 12.1247 147.934 13.3087 147.934 14.8654V24.1727H143.362Z" fill="#2A62FE"/>
<path d="M165.532 24.7975C163.953 24.7975 162.561 24.5454 161.355 24.0411C160.149 23.5368 159.13 22.8571 158.296 22.0021C157.463 21.125 156.827 20.1384 156.389 19.0421C155.972 17.9459 155.764 16.8058 155.764 15.6218V14.9311C155.764 13.7033 155.983 12.5413 156.422 11.445C156.882 10.3268 157.529 9.34018 158.362 8.4851C159.217 7.60808 160.248 6.9284 161.454 6.44604C162.66 5.94176 164.019 5.68962 165.532 5.68962C167.045 5.68962 168.404 5.94176 169.61 6.44604C170.816 6.9284 171.835 7.60808 172.668 8.4851C173.523 9.34018 174.17 10.3268 174.609 11.445C175.047 12.5413 175.267 13.7033 175.267 14.9311V15.6218C175.267 16.8058 175.047 17.9459 174.609 19.0421C174.192 20.1384 173.567 21.125 172.734 22.0021C171.901 22.8571 170.881 23.5368 169.676 24.0411C168.47 24.5454 167.088 24.7975 165.532 24.7975ZM165.532 20.8839C166.65 20.8839 167.593 20.6427 168.36 20.1603C169.127 19.656 169.708 18.9873 170.103 18.1542C170.498 17.2991 170.695 16.3344 170.695 15.26C170.695 14.1638 170.487 13.199 170.07 12.3659C169.676 11.5108 169.084 10.8421 168.294 10.3597C167.527 9.85543 166.606 9.60329 165.532 9.60329C164.457 9.60329 163.526 9.85543 162.736 10.3597C161.969 10.8421 161.377 11.5108 160.96 12.3659C160.544 13.199 160.335 14.1638 160.335 15.26C160.335 16.3344 160.533 17.2991 160.927 18.1542C161.344 18.9873 161.936 19.656 162.703 20.1603C163.471 20.6427 164.414 20.8839 165.532 20.8839Z" fill="#2A62FE"/>
</svg>
