<svg width="114" height="32" viewBox="0 0 114 32" fill="none" xmlns="http://www.w3.org/2000/svg">
<path d="M46.9844 20.2247C46.0834 19.7165 45.339 18.9607 44.8559 18.0485C44.3335 17.0711 44.0723 15.9765 44.0985 14.8688C44.0723 13.7482 44.3466 12.6275 44.895 11.6371C45.3913 10.7249 46.1486 9.96907 47.0497 9.46085C47.9768 8.9396 49.0215 8.67897 50.0923 8.692C50.8889 8.67897 51.6854 8.78322 52.4428 9.01778C53.1219 9.23932 53.7748 9.55207 54.3755 9.92998C54.48 9.9821 54.5583 10.0733 54.6236 10.1645C54.6889 10.2818 54.7281 10.4121 54.7281 10.5425C54.7411 10.9204 54.4277 11.2331 54.049 11.2461C54.036 11.2461 54.0229 11.2461 53.9968 11.2461C53.8662 11.2461 53.7487 11.2201 53.6312 11.1549C53.1219 10.8422 52.5734 10.6076 52.0119 10.4252C51.4373 10.2558 50.8497 10.1776 50.2621 10.1906C49.4394 10.1776 48.6298 10.373 47.9115 10.7379C47.2194 11.1028 46.6449 11.6631 46.2662 12.3408C45.8744 13.0445 45.6785 13.8785 45.6785 14.8558C45.6655 15.6898 45.8614 16.5108 46.2401 17.2536C46.6057 17.9573 47.1672 18.5307 47.8593 18.9216C48.5645 19.3256 49.4002 19.5341 50.3665 19.5341C51.4112 19.5341 52.4428 19.2865 53.37 18.7782V15.6638H50.5363C50.1445 15.6507 49.8442 15.3119 49.8573 14.934C49.8703 14.5691 50.1707 14.2694 50.5363 14.2564H53.9315C54.3886 14.2564 54.7542 14.6213 54.7542 15.0774C54.7542 15.0774 54.7542 15.0774 54.7542 15.0904V18.9867C54.7542 19.2083 54.6889 19.4428 54.5714 19.6253C54.4539 19.8077 54.2971 19.9511 54.1013 20.0423C52.8868 20.6678 51.5287 20.9936 50.1576 21.0066C49.0346 21.0196 47.9507 20.759 46.9844 20.2247Z" fill="#2A62FE"/>
<path d="M57.7576 20.6938C57.614 20.5504 57.5356 20.3549 57.5356 20.1464V12.7837C57.5356 12.5752 57.614 12.3798 57.7576 12.2234C57.9013 12.067 58.0972 11.9888 58.3061 11.9888C58.737 11.9888 59.0896 12.3407 59.1027 12.7837V13.5265C59.8992 12.458 60.8003 11.9106 61.7927 11.9106H61.8841C62.0931 11.9106 62.2889 11.9888 62.4195 12.1322C62.5632 12.2755 62.6415 12.471 62.6285 12.6795C62.6415 12.875 62.5501 13.0704 62.4065 13.2138C62.2498 13.3571 62.0408 13.4223 61.8319 13.4223H61.7405C61.2051 13.4223 60.6827 13.5526 60.2257 13.8262C59.7556 14.0999 59.3638 14.4778 59.0765 14.9339V20.1595C59.0765 20.368 58.9982 20.5634 58.8415 20.7068C58.6979 20.8501 58.4889 20.9283 58.28 20.9283C58.0972 20.9153 57.9013 20.8371 57.7576 20.6938Z" fill="#2A62FE"/>
<path d="M65.4097 20.4331C64.7437 20.0552 64.2083 19.5079 63.8688 18.8303C63.5031 18.0875 63.3073 17.2796 63.3334 16.4456C63.3203 15.6246 63.5031 14.8036 63.8688 14.0608C64.2083 13.3832 64.7437 12.8229 65.4097 12.458C66.8592 11.7022 68.5829 11.7022 70.0324 12.458C70.6984 12.8359 71.2338 13.3832 71.5863 14.0608C71.965 14.7906 72.1479 15.6116 72.1348 16.4456C72.1479 17.2665 71.965 18.0875 71.5863 18.8303C71.2338 19.5079 70.6984 20.0683 70.0324 20.4331C68.5829 21.189 66.8592 21.189 65.4097 20.4331ZM69.0791 19.2473C69.5231 19.0127 69.9018 18.6609 70.1499 18.2178C70.4241 17.7487 70.5678 17.1493 70.5678 16.4325C70.5678 15.7158 70.4241 15.1164 70.1499 14.6603C69.9018 14.2172 69.5362 13.8654 69.0791 13.6438C68.6612 13.4353 68.1911 13.3311 67.7341 13.3311C67.264 13.3311 66.7939 13.4353 66.3629 13.6438C65.919 13.8654 65.5533 14.2302 65.3052 14.6603C65.031 15.1294 64.8873 15.7158 64.8873 16.4325C64.8873 17.1362 65.031 17.7357 65.3052 18.2178C65.5533 18.6609 65.919 19.0127 66.3629 19.2473C66.7808 19.4688 67.2509 19.5731 67.7341 19.5731C68.2042 19.5731 68.6612 19.4688 69.0791 19.2473Z" fill="#2A62FE"/>
<path d="M76.1961 20.7067C76.0133 20.5764 75.8827 20.394 75.8174 20.1855L73.3755 13.0443C73.3494 12.9531 73.3232 12.8488 73.3232 12.7576C73.3232 12.3406 73.6628 11.9888 74.0806 11.9888H74.0937C74.2504 11.9888 74.4071 12.0279 74.5246 12.1191C74.6422 12.1973 74.7336 12.3146 74.7858 12.4579L76.7968 19.0648L78.7948 12.6143C78.9384 12.1451 79.4346 11.8845 79.9047 12.0409C80.179 12.1321 80.4009 12.3406 80.4793 12.6143L82.4773 19.0648L84.5144 12.4579C84.5666 12.3146 84.658 12.1973 84.7755 12.1191C84.9061 12.0279 85.0628 11.9888 85.2195 11.9888C85.6374 11.9888 85.99 12.3276 85.99 12.7446V12.7576C85.99 12.8619 85.9769 12.9531 85.9378 13.0443L83.4958 20.1985C83.4305 20.407 83.2999 20.5894 83.1171 20.7198C82.7515 20.9934 82.2422 20.9934 81.8766 20.7198C81.6937 20.5894 81.5632 20.394 81.4848 20.1855L79.6566 14.5038L77.8284 20.1855C77.7501 20.394 77.6195 20.5764 77.4367 20.7198C77.071 20.9934 76.5617 20.9934 76.1961 20.7067Z" fill="#2A62FE"/>
<path d="M88.7059 18.7392V13.4224H87.4915C87.4001 13.4224 87.3217 13.3963 87.2565 13.3312C87.1912 13.266 87.165 13.1878 87.165 13.0966C87.165 12.9793 87.2303 12.8751 87.3217 12.8099L89.6592 10.5294C89.7376 10.4382 89.842 10.3861 89.9465 10.373C90.0379 10.373 90.1163 10.4121 90.1816 10.4773C90.2468 10.5425 90.273 10.6337 90.273 10.7119V12.0802H92.2187C92.5974 12.0802 92.8977 12.3799 92.8847 12.7578C92.8847 12.9272 92.8194 13.0966 92.7018 13.2269C92.5713 13.3572 92.4015 13.4354 92.2187 13.4224H90.273V18.6088C90.273 19.0519 90.3774 19.3386 90.5864 19.4559C90.8345 19.5862 91.1087 19.6513 91.3829 19.6383C91.618 19.6383 91.853 19.5992 92.075 19.5341L92.2187 19.495C92.284 19.4819 92.3493 19.4819 92.4146 19.4819C92.5713 19.4819 92.728 19.5471 92.8455 19.6644C92.963 19.7817 93.0414 19.938 93.0283 20.1074C93.0283 20.3681 92.8716 20.6026 92.6366 20.7069C92.1926 20.9154 91.6963 21.0196 91.2132 21.0196C89.5417 21.0066 88.7059 20.2508 88.7059 18.7392Z" fill="#2A62FE"/>
<path d="M94.8828 10.0341C94.713 9.87775 94.6216 9.64319 94.6216 9.42165V9.3565C94.6216 8.87434 95.0133 8.4834 95.4965 8.4834H95.601C96.0841 8.4834 96.4759 8.87434 96.4759 9.3565V9.42165C96.4759 9.90381 96.0841 10.2948 95.601 10.3078H95.4965C95.2614 10.2948 95.0395 10.2035 94.8828 10.0341ZM94.9872 20.6937C94.8436 20.5504 94.7652 20.3549 94.7652 20.1464V12.7837C94.7652 12.5752 94.8436 12.3798 94.9872 12.2234C95.1309 12.067 95.3267 11.9888 95.5357 11.9888C95.9535 11.9758 96.3192 12.3016 96.3322 12.7316C96.3322 12.7446 96.3322 12.7577 96.3322 12.7837V20.1464C96.3322 20.3549 96.2539 20.5504 96.0972 20.6937C95.9535 20.8371 95.7446 20.9153 95.5357 20.9153C95.3267 20.9283 95.1309 20.8371 94.9872 20.6937Z" fill="#2A62FE"/>
<path d="M99.9231 20.6939C99.7795 20.5505 99.7011 20.3551 99.7011 20.1466V13.4224H98.6826C98.3169 13.4224 98.0166 13.1227 98.0166 12.7578C98.0166 12.5754 98.0819 12.406 98.2125 12.2756C98.3431 12.1584 98.5128 12.0802 98.6826 12.0932H99.7011V11.0768C99.7011 10.3861 99.8187 9.82576 100.067 9.38269C100.289 8.97872 100.615 8.63991 101.033 8.41837C101.425 8.2229 101.843 8.11865 102.274 8.11865C102.796 8.11865 103.305 8.23593 103.775 8.4705C103.893 8.52262 103.984 8.61384 104.063 8.71809C104.141 8.82234 104.18 8.93963 104.18 9.06994C104.18 9.23935 104.115 9.40875 103.984 9.52603C103.867 9.65635 103.71 9.7215 103.54 9.7215C103.41 9.7215 103.279 9.70847 103.149 9.66938C102.874 9.63029 102.718 9.61725 102.678 9.61725C102.208 9.61725 101.856 9.72151 101.621 9.94304C101.386 10.1646 101.268 10.5555 101.268 11.1289V12.0671H103.423C103.802 12.0671 104.102 12.3669 104.089 12.7448C104.089 12.9142 104.024 13.0836 103.906 13.2139C103.775 13.3442 103.606 13.4224 103.423 13.4094H101.268V20.1466C101.268 20.3551 101.19 20.5505 101.033 20.6939C100.889 20.8372 100.681 20.9154 100.472 20.9154C100.263 20.9284 100.067 20.8372 99.9231 20.6939Z" fill="#2A62FE"/>
<path d="M107.053 24.6422C106.91 24.4988 106.844 24.3034 106.844 24.1079C106.844 24.0167 106.857 23.9255 106.897 23.8342L108.02 20.9674L104.781 13.1095C104.742 13.0052 104.716 12.901 104.716 12.7837C104.716 12.5752 104.794 12.3797 104.938 12.2233C105.081 12.08 105.277 11.9888 105.486 11.9888C105.643 11.9888 105.8 12.0409 105.93 12.1321C106.061 12.2103 106.152 12.3406 106.218 12.4709L108.868 19.0257L111.572 12.51C111.715 12.1582 111.963 11.9888 112.29 11.9888C112.499 11.9888 112.695 12.067 112.838 12.2233C112.982 12.3667 113.06 12.5752 113.06 12.7837C113.06 12.8879 113.047 12.9792 113.008 13.0704L108.307 24.3294C108.15 24.6813 107.902 24.8637 107.589 24.8637C107.38 24.8637 107.184 24.7855 107.053 24.6422Z" fill="#2A62FE"/>
<path d="M16.9758 0C8.12211 0 0.939941 7.16723 0.939941 16.0025C0.939941 20.0291 2.45473 23.8994 5.19701 26.8576L8.59222 23.4694L9.49326 24.3686L10.6946 23.1697H20.815C19.4569 23.9516 17.9029 24.3686 16.3359 24.3686H9.4802L6.08499 27.7567C12.5881 33.7511 22.7346 33.3472 28.7415 26.8445C34.7484 20.3419 34.3436 10.2296 27.8274 4.23518C24.8762 1.51163 20.9978 0 16.9758 0ZM8.59222 23.4694V16.654C8.60528 11.6761 12.6404 7.64939 17.6287 7.63636H24.4583L8.59222 23.4694ZM22.4342 21.9708H11.883L13.0843 20.7719H23.5311C23.2047 21.215 22.839 21.6059 22.4342 21.9708ZM24.2885 19.5861H14.2727L15.474 18.3872H24.8239C24.6803 18.8042 24.4975 19.1951 24.2885 19.5861ZM25.1635 17.1883H16.6754L17.9813 15.8852H25.3332C25.3071 16.3282 25.2549 16.7583 25.1635 17.1883ZM25.3593 14.6733H19.1957L20.4102 13.4614H25.3593V14.6733ZM25.3593 12.2364H21.6377L22.6693 11.2069H25.3593V12.2364ZM25.3593 10.0211H23.8576L25.3593 8.52249V10.0211Z" fill="#2A62FE"/>
</svg>
