<svg width="94" height="32" viewBox="0 0 94 32" fill="none" xmlns="http://www.w3.org/2000/svg">
<path d="M45.1896 13.1787V17.1322C44.697 17.4917 44.138 17.7712 43.5522 17.9576C42.9399 18.1439 42.3009 18.2371 41.662 18.2371C40.9032 18.2504 40.1578 18.1173 39.4389 17.8511C38.8133 17.6115 38.2276 17.2521 37.7484 16.7861C37.2824 16.3202 36.9097 15.7611 36.6701 15.1488C36.4172 14.4832 36.2841 13.7644 36.2974 13.0456C36.2841 12.3267 36.4039 11.6079 36.6568 10.929C36.8831 10.3167 37.2425 9.75759 37.6951 9.29168C38.161 8.82577 38.7201 8.46636 39.3324 8.22675C40.0246 7.96052 40.7568 7.84071 41.5022 7.85402C41.875 7.85402 42.261 7.88065 42.6337 7.94721C42.9665 8.00045 43.286 8.09363 43.5922 8.21344C43.885 8.31993 44.1513 8.45305 44.4175 8.61279C44.6704 8.77253 44.8967 8.94558 45.123 9.14525L44.697 9.82415C44.6438 9.93064 44.5506 9.9972 44.4308 10.0238C44.311 10.0504 44.1779 10.0238 44.0847 9.94395C43.9649 9.8774 43.8318 9.78421 43.6854 9.69103C43.5123 9.58454 43.3393 9.49136 43.1529 9.4248C42.9266 9.33162 42.687 9.26506 42.4341 9.22512C42.1146 9.15857 41.7951 9.13194 41.4623 9.14525C40.9432 9.13194 40.4373 9.22512 39.9581 9.41149C39.5188 9.58454 39.1328 9.85077 38.8133 10.1969C38.4938 10.5563 38.2409 10.969 38.0811 11.4215C37.9081 11.9407 37.8149 12.4865 37.8282 13.0323C37.8149 13.6047 37.9081 14.1637 38.0945 14.6962C38.2542 15.1621 38.5204 15.5881 38.8532 15.9475C39.186 16.2936 39.5987 16.5598 40.0513 16.7329C40.5571 16.9193 41.0896 17.0124 41.622 16.9991C41.835 16.9991 42.048 16.9858 42.261 16.9592C42.4474 16.9326 42.6337 16.8926 42.8201 16.8527C42.9931 16.8128 43.1662 16.7462 43.3393 16.6797C43.5123 16.6131 43.672 16.5332 43.8318 16.44V14.3102H42.3276C42.2477 14.3102 42.1545 14.2836 42.1013 14.2303C42.048 14.1771 42.0081 14.0972 42.0081 14.0173V13.1787H45.1896Z" fill="#2A62FE"/>
<path d="M49.9019 10.8225C50.3945 10.8092 50.8737 10.9024 51.3263 11.0755C51.739 11.2352 52.1117 11.4881 52.4178 11.8209C52.724 12.1537 52.9636 12.5531 53.1101 12.979C53.4295 13.9774 53.4295 15.0423 53.1101 16.0407C52.9636 16.4667 52.724 16.866 52.4178 17.2121C52.1117 17.5316 51.739 17.7845 51.3263 17.9443C50.4078 18.2904 49.3828 18.2904 48.4643 17.9443C48.0516 17.7845 47.6789 17.5316 47.3727 17.2121C47.0666 16.8793 46.827 16.48 46.6805 16.0407C46.361 15.0423 46.361 13.9774 46.6805 12.979C46.827 12.5531 47.0666 12.1537 47.3727 11.8209C47.6789 11.5014 48.0516 11.2485 48.4643 11.0755C48.9302 10.9024 49.4094 10.8225 49.9019 10.8225ZM49.9019 17.1323C50.5808 17.1323 51.0867 16.906 51.4195 16.4534C51.7523 16.0008 51.9253 15.3485 51.9253 14.5232C51.9253 13.6979 51.7523 13.0456 51.4195 12.593C51.0867 12.1404 50.5808 11.9008 49.9019 11.9008C49.2097 11.9008 48.7039 12.1271 48.3711 12.593C48.0383 13.0589 47.8653 13.6979 47.8653 14.5232C47.8653 15.3485 48.0383 15.9875 48.3711 16.4534C48.7039 16.906 49.2097 17.1323 49.9019 17.1323Z" fill="#2A62FE"/>
<path d="M56.2911 7.69434V18.1174H54.9067V7.69434H56.2911Z" fill="#2A62FE"/>
<path d="M64.2649 7.69434V18.1174H63.4263C63.2532 18.1307 63.0935 18.0109 63.0669 17.8378L62.9471 17.0125C62.6542 17.3586 62.3081 17.6515 61.9088 17.8778C61.4961 18.1041 61.0302 18.2105 60.5643 18.2105C60.1783 18.2105 59.8055 18.1307 59.4461 17.9709C59.1133 17.8112 58.8205 17.5716 58.5942 17.2654C58.3412 16.9193 58.1549 16.5333 58.0484 16.1206C57.9153 15.6015 57.8487 15.0823 57.862 14.5498C57.862 14.044 57.9286 13.5515 58.075 13.0722C58.2081 12.6463 58.4078 12.2336 58.6873 11.8875C59.2331 11.1953 60.0718 10.796 60.9503 10.8093C61.6825 10.7826 62.388 11.0755 62.8672 11.6213V7.69434H64.2649ZM62.8805 12.6729C62.6942 12.4067 62.4412 12.1937 62.1484 12.0472C61.8688 11.9274 61.576 11.8609 61.2698 11.8742C60.6442 11.8742 60.1516 12.1005 59.8055 12.5531C59.4594 13.0057 59.2864 13.6713 59.2864 14.5365C59.2864 14.9226 59.313 15.3219 59.4062 15.708C59.4594 15.9875 59.5792 16.2537 59.739 16.4933C59.8721 16.693 60.0718 16.8528 60.2847 16.9459C60.511 17.0391 60.764 17.0924 61.0169 17.0924C61.3763 17.1057 61.7357 17.0125 62.0552 16.8261C62.3747 16.6265 62.6542 16.3735 62.8805 16.0674V12.6729Z" fill="#2A62FE"/>
<path d="M71.5462 9.19831V12.5928H75.6063V13.8174H71.5462V18.1171H70.042V7.97363H76.3251V9.19831H71.5462Z" fill="#2A62FE"/>
<path d="M79.4003 8.71918C79.4003 8.83899 79.3737 8.9721 79.3204 9.0786C79.2672 9.1984 79.2006 9.29158 79.1074 9.38476C78.9344 9.55782 78.6815 9.66431 78.4285 9.66431C78.3087 9.66431 78.1756 9.63769 78.0691 9.58444C77.9626 9.53119 77.8561 9.46463 77.7629 9.38476C77.6698 9.29158 77.6032 9.1984 77.5633 9.0786C77.51 8.95879 77.4834 8.83899 77.4834 8.71918C77.4834 8.58606 77.51 8.46626 77.5633 8.34645C77.6565 8.12016 77.8428 7.93379 78.0691 7.84061C78.1889 7.78737 78.3087 7.76074 78.4285 7.76074C78.6815 7.76074 78.9211 7.86724 79.1074 8.04029C79.2006 8.13347 79.2672 8.22665 79.3204 8.34645C79.387 8.46626 79.4136 8.58606 79.4003 8.71918ZM79.134 10.9422V18.1172H77.7629V10.9422H79.134Z" fill="#2A62FE"/>
<path d="M85.3775 12.167C85.3509 12.2202 85.311 12.2602 85.2577 12.3001C85.2045 12.3267 85.1512 12.3401 85.098 12.3401C85.0048 12.3401 84.9249 12.3134 84.8451 12.2602C84.7519 12.2069 84.6454 12.1537 84.5123 12.0871C84.3658 12.0206 84.2194 11.9673 84.0597 11.9141C83.86 11.8608 83.647 11.8342 83.434 11.8342C83.2477 11.8342 83.0746 11.8608 82.9015 11.9141C82.7551 11.954 82.6087 12.0206 82.4889 12.1138C82.3824 12.1936 82.2892 12.3001 82.2227 12.4199C82.1561 12.5397 82.1295 12.6728 82.1295 12.806C82.1295 12.9657 82.1827 13.1254 82.2892 13.2452C82.409 13.3784 82.5554 13.4715 82.7019 13.5514C82.8882 13.6446 83.0879 13.7245 83.2876 13.7777L83.9532 13.9907C84.1795 14.0706 84.4058 14.1504 84.6188 14.2436C84.8317 14.3368 85.0314 14.4566 85.2045 14.603C85.3775 14.7495 85.5239 14.9225 85.6171 15.1222C85.7236 15.3485 85.7902 15.6014 85.7769 15.8676C85.7769 16.1871 85.7236 16.5066 85.5905 16.7995C85.4707 17.079 85.2843 17.3319 85.058 17.5316C84.8051 17.7446 84.5123 17.9176 84.1928 18.0241C83.8067 18.1439 83.4207 18.2105 83.0214 18.1972C82.5554 18.1972 82.0895 18.1173 81.6503 17.9443C81.2642 17.7978 80.9048 17.5848 80.5986 17.3186L80.9181 16.7861C80.9581 16.7196 80.998 16.6663 81.0645 16.6397C81.1311 16.5998 81.211 16.5865 81.2908 16.5865C81.3973 16.5865 81.4905 16.6264 81.5704 16.6797C81.6636 16.7462 81.7834 16.8128 81.9032 16.8926C82.0496 16.9725 82.2093 17.0524 82.3824 17.1056C82.6087 17.1722 82.8483 17.2121 83.0879 17.1988C83.3009 17.1988 83.5006 17.1722 83.7002 17.1056C83.86 17.0524 84.0064 16.9725 84.1395 16.866C84.246 16.7728 84.3392 16.653 84.3925 16.5199C84.4457 16.3868 84.4723 16.2404 84.4723 16.1072C84.4723 15.9342 84.4191 15.7745 84.3126 15.6413C84.1928 15.5082 84.0597 15.4017 83.8999 15.3219C83.7136 15.2287 83.5139 15.1488 83.3142 15.0823C83.0879 15.0157 82.8616 14.9491 82.6353 14.8693C82.409 14.7894 82.1827 14.7095 81.9564 14.603C81.7434 14.5099 81.5438 14.3767 81.3707 14.2303C81.1977 14.0706 81.0512 13.8842 80.958 13.6845C80.8516 13.4316 80.7983 13.1654 80.8116 12.8991C80.8116 12.6196 80.8649 12.3534 80.9847 12.1004C81.1045 11.8475 81.2775 11.6212 81.4905 11.4349C81.7301 11.2352 82.0097 11.0754 82.3025 10.969C82.6619 10.8491 83.0347 10.7959 83.4074 10.7959C83.8467 10.7959 84.286 10.8625 84.6986 11.0222C85.058 11.1553 85.4041 11.3683 85.6837 11.6478L85.3775 12.167Z" fill="#2A62FE"/>
<path d="M88.652 11.8476C88.9449 11.5547 89.2776 11.3018 89.6504 11.1021C90.0364 10.9024 90.4757 10.8093 90.915 10.8226C91.2744 10.8093 91.6338 10.8891 91.9533 11.0222C92.2461 11.1421 92.4991 11.3417 92.6987 11.5813C92.9117 11.8343 93.0715 12.1271 93.1646 12.4333C93.2711 12.7927 93.3244 13.1654 93.3244 13.5382V18.1041H91.94V13.5382C91.94 13.019 91.8202 12.633 91.5806 12.3401C91.3409 12.0472 90.9815 11.9141 90.5023 11.9141C90.1562 11.9141 89.8101 11.994 89.5039 12.1671C89.1845 12.3401 88.8916 12.5797 88.6387 12.8459V18.1041H87.2676V7.69434H88.652V11.8476Z" fill="#2A62FE"/>
<path d="M36.7501 24.2803V21.8709L36.3374 21.8576C36.2975 21.8576 36.2842 21.8442 36.2842 21.8176V21.7644H36.7368V21.4981C36.7368 21.3517 36.7634 21.2053 36.8033 21.0589C36.8433 20.9391 36.9098 20.8326 37.003 20.7394C37.0962 20.6462 37.1894 20.5796 37.3092 20.5397C37.4423 20.4998 37.5754 20.4731 37.7085 20.4731C37.7618 20.4731 37.815 20.4731 37.8816 20.4865C37.9348 20.4998 37.9881 20.5131 38.028 20.5264L38.0147 20.593C38.0147 20.6063 38.0014 20.6063 38.0014 20.6063C37.9881 20.6063 37.9748 20.6063 37.9481 20.6063L37.8683 20.593C37.8283 20.593 37.7751 20.593 37.7351 20.593C37.6153 20.593 37.5089 20.6063 37.389 20.6329C37.2826 20.6728 37.1894 20.7261 37.1095 20.8059C37.0296 20.8858 36.9764 20.979 36.9365 21.0855C36.8965 21.2186 36.8699 21.3517 36.8699 21.4848V21.7511H38.3741V24.267H38.2277V21.8576H36.8566V24.267H36.7501V24.2803Z" fill="#2A62FE"/>
<path d="M41.8081 21.9375C41.7948 21.9508 41.7815 21.9641 41.7681 21.9641C41.7415 21.9641 41.7149 21.9508 41.7016 21.9242C41.6617 21.8976 41.6217 21.871 41.5818 21.8443C41.5152 21.8177 41.462 21.7911 41.3954 21.7645C41.3022 21.7378 41.2091 21.7245 41.1159 21.7245C41.0227 21.7245 40.9162 21.7378 40.8363 21.7778C40.7565 21.8044 40.6766 21.8443 40.61 21.8976C40.5435 21.9508 40.5035 22.0041 40.4636 22.0839C40.4237 22.1505 40.4104 22.2304 40.4104 22.2969C40.4104 22.3768 40.437 22.4567 40.4769 22.5232C40.5169 22.5898 40.5834 22.643 40.65 22.6697C40.7298 22.7096 40.8097 22.7495 40.8896 22.7762L41.1691 22.8693C41.2623 22.896 41.3555 22.9226 41.4487 22.9625C41.5285 22.9891 41.6084 23.0291 41.6883 23.0823C41.7548 23.1356 41.8214 23.1888 41.8613 23.2687C41.9013 23.3486 41.9279 23.4417 41.9279 23.5349C41.9279 23.6414 41.9146 23.7479 41.8746 23.8411C41.8347 23.9343 41.7815 24.0274 41.7016 24.094C41.6217 24.1739 41.5285 24.2271 41.422 24.2671C41.3022 24.307 41.1824 24.3336 41.0493 24.3336C40.9694 24.3336 40.8763 24.3203 40.7964 24.307C40.7298 24.2937 40.65 24.2671 40.5834 24.2404C40.5169 24.2138 40.4636 24.1739 40.397 24.1339C40.3438 24.094 40.2772 24.0541 40.2373 24.0008L40.2772 23.9609C40.2772 23.9476 40.2906 23.9476 40.2906 23.9476C40.3039 23.9476 40.3172 23.9343 40.3172 23.9343C40.3438 23.9343 40.3704 23.9609 40.397 23.9742C40.437 24.0141 40.4769 24.0408 40.5302 24.0674C40.5967 24.1073 40.6633 24.1473 40.7432 24.1606C40.8496 24.1872 40.9561 24.2005 41.0626 24.2005C41.1691 24.2005 41.2756 24.1872 41.3821 24.1473C41.4753 24.1206 41.5419 24.0674 41.6217 24.0008C41.6883 23.9476 41.7282 23.8677 41.7681 23.7878C41.7948 23.708 41.8214 23.6148 41.8214 23.5349C41.8214 23.455 41.8081 23.3619 41.7548 23.2953C41.7149 23.2287 41.6483 23.1755 41.5818 23.1356C41.5019 23.0956 41.422 23.0557 41.3422 23.0291L41.0626 22.9492C40.9694 22.9226 40.8763 22.896 40.7831 22.856C40.7032 22.8294 40.6233 22.7895 40.5435 22.7362C40.4769 22.6963 40.4104 22.6297 40.3704 22.5632C40.3305 22.4833 40.3039 22.3901 40.3039 22.2969C40.3039 22.2037 40.3305 22.1239 40.3704 22.044C40.4104 21.9641 40.4636 21.8843 40.5435 21.831C40.6233 21.7645 40.7165 21.7112 40.8097 21.6846C40.9162 21.6447 41.036 21.6313 41.1558 21.6313C41.2889 21.6313 41.422 21.6447 41.5552 21.6979C41.675 21.7378 41.7948 21.8177 41.888 21.8976L41.8081 21.9375Z" fill="#2A62FE"/>
<path d="M43.8582 22.164C43.978 22.0042 44.1244 21.8711 44.2975 21.7646C44.4705 21.6714 44.6569 21.6182 44.8433 21.6182C44.9764 21.6182 45.0962 21.6448 45.2293 21.6848C45.3358 21.7247 45.429 21.7913 45.4955 21.8844C45.5754 21.9776 45.6287 22.0841 45.6553 22.1906C45.6952 22.3237 45.7085 22.4701 45.7085 22.6033V24.2805H45.5754V22.6166C45.5754 22.4968 45.5621 22.3637 45.5355 22.2439C45.5089 22.1374 45.4689 22.0442 45.4024 21.9643C45.3358 21.8844 45.2559 21.8312 45.1628 21.7913C45.0563 21.7513 44.9498 21.7247 44.83 21.738C44.6436 21.738 44.4572 21.7913 44.2975 21.8844C44.1244 21.9909 43.978 22.1374 43.8715 22.2971V24.2805H43.7251V20.4468H43.8715L43.8582 22.164Z" fill="#2A62FE"/>
<path d="M50.3541 24.2804V21.871L49.9414 21.8577C49.9015 21.8577 49.8882 21.8443 49.8882 21.8177V21.7645H50.3541V21.3918C50.3541 21.2586 50.3674 21.1255 50.4073 21.0057C50.434 20.8992 50.4872 20.806 50.5538 20.7262C50.6203 20.6596 50.7002 20.5931 50.7934 20.5664C50.8866 20.5265 50.9931 20.5132 51.0995 20.5132C51.1528 20.5132 51.206 20.5132 51.2593 20.5265C51.3125 20.5398 51.3525 20.5531 51.4057 20.5664L51.3924 20.6197C51.3924 20.633 51.3791 20.6463 51.3791 20.6463C51.3658 20.6463 51.3392 20.6463 51.3258 20.6463H51.246C51.206 20.6463 51.1661 20.633 51.1262 20.633C51.0463 20.633 50.9531 20.6463 50.8732 20.6729C50.7934 20.6995 50.7268 20.7395 50.6736 20.806C50.607 20.8726 50.5671 20.9525 50.5405 21.0456C50.5005 21.1655 50.4872 21.2853 50.4872 21.4051V21.7778H51.3791V21.8843H50.4872V24.2937L50.3541 24.2804Z" fill="#2A62FE"/>
<path d="M53.935 21.6315C54.108 21.6315 54.2678 21.6581 54.4275 21.7246C54.5739 21.7912 54.6937 21.8844 54.7869 22.0042C54.8934 22.124 54.96 22.2704 55.0132 22.4302C55.1197 22.7896 55.1197 23.1756 55.0132 23.535C54.9733 23.6948 54.8934 23.8279 54.7869 23.961C54.6937 24.0808 54.5606 24.174 54.4275 24.2272C54.108 24.347 53.7619 24.347 53.4424 24.2272C53.296 24.174 53.1762 24.0808 53.083 23.961C52.9765 23.8412 52.91 23.6948 52.8567 23.535C52.7502 23.1756 52.7502 22.7896 52.8567 22.4302C52.8967 22.2704 52.9765 22.124 53.083 22.0042C53.1762 21.8844 53.3093 21.7912 53.4424 21.7246C53.6022 21.6581 53.7619 21.6181 53.935 21.6315ZM53.935 24.2006C54.0947 24.2006 54.2411 24.174 54.3876 24.1074C54.5074 24.0542 54.6272 23.961 54.707 23.8545C54.8002 23.7347 54.8668 23.6016 54.9067 23.4685C54.9467 23.3087 54.9733 23.1357 54.9733 22.9626C54.9733 22.7896 54.96 22.6165 54.9067 22.4568C54.8668 22.3104 54.8002 22.1772 54.707 22.0707C54.6272 21.9642 54.5074 21.8711 54.3876 21.8178C54.108 21.698 53.7885 21.698 53.4957 21.8178C53.3759 21.8711 53.2561 21.9642 53.1762 22.0707C53.083 22.1905 53.0165 22.3237 52.9765 22.4568C52.9366 22.6165 52.91 22.7896 52.91 22.9626C52.91 23.1357 52.9233 23.2954 52.9765 23.4685C53.0165 23.6149 53.083 23.7347 53.1762 23.8545C53.2561 23.961 53.3759 24.0542 53.4957 24.1074C53.6288 24.174 53.7752 24.2139 53.935 24.2006Z" fill="#2A62FE"/>
<path d="M57.9286 21.6315C58.1017 21.6315 58.2614 21.6581 58.4212 21.7246C58.5676 21.7912 58.6874 21.8844 58.7806 22.0042C58.8871 22.124 58.9669 22.2704 59.0069 22.4302C59.1134 22.7896 59.1134 23.1756 59.0069 23.535C58.9669 23.6948 58.8871 23.8279 58.7806 23.961C58.6874 24.0808 58.5543 24.174 58.4212 24.2272C58.1017 24.347 57.7556 24.347 57.4361 24.2272C57.2897 24.1607 57.1699 24.0808 57.0767 23.961C56.9702 23.8412 56.9036 23.6948 56.8504 23.535C56.7439 23.1756 56.7439 22.7896 56.8504 22.4302C56.8903 22.2704 56.9702 22.124 57.0767 22.0042C57.1699 21.8844 57.303 21.7912 57.4361 21.7246C57.5958 21.6581 57.7556 21.6181 57.9286 21.6315ZM57.9286 24.2006C58.0884 24.2006 58.2348 24.174 58.3812 24.1074C58.501 24.0542 58.6208 23.961 58.7007 23.8545C58.7939 23.7347 58.8604 23.6016 58.8871 23.4685C58.927 23.3087 58.9536 23.1357 58.9536 22.9626C58.9536 22.7896 58.9403 22.6165 58.8871 22.4568C58.8471 22.3104 58.7806 22.1772 58.7007 22.0707C58.6208 21.9642 58.501 21.8711 58.3812 21.8178C58.1017 21.698 57.7689 21.698 57.4893 21.8178C57.3695 21.8711 57.2497 21.9642 57.1699 22.0707C57.0767 22.1905 57.0101 22.3237 56.9835 22.4568C56.9436 22.6165 56.9169 22.7896 56.9169 22.9626C56.9169 23.1357 56.9302 23.2954 56.9835 23.4685C57.0234 23.6149 57.09 23.7347 57.1699 23.8545C57.2497 23.961 57.3695 24.0542 57.4893 24.1074C57.6225 24.174 57.7822 24.2139 57.9286 24.2006Z" fill="#2A62FE"/>
<path d="M62.8939 20.4469V24.2807H62.8273C62.8007 24.2807 62.7741 24.2674 62.7741 24.2407V24.2274L62.7608 23.7615C62.6543 23.9212 62.5079 24.0544 62.3481 24.1609C62.1884 24.254 62.002 24.3073 61.8157 24.3073C61.5228 24.3206 61.2433 24.2008 61.0436 23.9745C60.8705 23.7482 60.7773 23.4154 60.7773 22.9628C60.7773 22.7764 60.804 22.6034 60.8439 22.4303C60.8838 22.2706 60.9637 22.1242 61.0569 22.0044C61.1501 21.8846 61.2699 21.7781 61.4163 21.7115C61.576 21.645 61.7358 21.605 61.9088 21.605C62.0819 21.605 62.2416 21.6316 62.4014 21.7115C62.5478 21.7914 62.6676 21.8979 62.7608 22.031V20.4336H62.8939V20.4469ZM62.7475 22.204C62.6543 22.0576 62.5345 21.9378 62.3881 21.8446C62.2416 21.7781 62.0952 21.7381 61.9355 21.7381C61.7757 21.7381 61.6293 21.7648 61.4829 21.8313C61.3631 21.8979 61.2433 21.9911 61.1634 22.0976C61.0702 22.2174 61.017 22.3505 60.977 22.4969C60.9371 22.6566 60.9105 22.8297 60.9105 22.9894C60.9105 23.4021 60.9903 23.7083 61.1501 23.9079C61.3098 24.1076 61.576 24.2274 61.829 24.2141C62.0153 24.2141 62.1884 24.1609 62.3348 24.0677C62.4945 23.9612 62.641 23.8148 62.7475 23.655V22.204Z" fill="#2A62FE"/>
<path d="M67.5662 22.1771C67.686 22.0174 67.8325 21.8843 68.0055 21.7778C68.1786 21.6846 68.3649 21.6313 68.5513 21.6313C68.6844 21.6313 68.8042 21.658 68.9373 21.6979C69.0438 21.7378 69.137 21.8044 69.2036 21.8976C69.2834 21.9908 69.3367 22.0973 69.3633 22.2037C69.4032 22.3369 69.4165 22.4833 69.4165 22.6164V24.2937H69.2834V22.6164C69.2834 22.4966 69.2701 22.3635 69.2435 22.2437C69.2169 22.1372 69.1769 22.044 69.1104 21.9641C69.0438 21.8843 68.9639 21.831 68.8708 21.7911C68.7643 21.7512 68.6578 21.7245 68.538 21.7378C68.3516 21.7378 68.1652 21.7911 68.0055 21.8843C67.8325 21.9908 67.686 22.1372 67.5795 22.2969V24.2804H67.4331V21.658H67.4997C67.5396 21.658 67.5529 21.6713 67.5529 21.7112L67.5662 22.1771Z" fill="#2A62FE"/>
<path d="M73.3434 21.6714V24.2805H73.2769C73.2502 24.2805 73.2236 24.2672 73.2236 24.2272L73.2103 23.7746C73.0905 23.9344 72.9441 24.0675 72.771 24.174C72.598 24.2805 72.4116 24.3204 72.2119 24.3204C72.0788 24.3204 71.959 24.2938 71.8259 24.2538C71.7194 24.2139 71.6262 24.1474 71.5597 24.0675C71.4798 23.9743 71.4266 23.8678 71.3999 23.7613C71.36 23.6282 71.3467 23.4818 71.3467 23.3487V21.6714H71.4798V23.3487C71.4798 23.4685 71.4931 23.6016 71.5197 23.7214C71.5464 23.8146 71.5863 23.9077 71.6528 24.0009C71.7194 24.0808 71.7993 24.134 71.8925 24.174C71.9989 24.2139 72.1054 24.2405 72.2252 24.2272C72.4116 24.2272 72.598 24.174 72.7577 24.0808C72.9308 23.9743 73.0772 23.8279 73.197 23.6681V21.6847H73.3434V21.6714Z" fill="#2A62FE"/>
<path d="M76.0061 24.3335C75.8596 24.3468 75.7265 24.2936 75.62 24.2004C75.5135 24.0806 75.4736 23.9209 75.4869 23.7744V21.8842H75.0742C75.0343 21.8842 75.021 21.8709 75.021 21.8443V21.791L75.4869 21.7777L75.5268 20.766C75.5268 20.7527 75.5268 20.7394 75.5402 20.7394C75.5402 20.7261 75.5535 20.7261 75.5668 20.7261H75.62V21.7777H76.4853V21.8842H75.62V23.7611C75.62 23.8277 75.6333 23.9076 75.6466 23.9741C75.66 24.0274 75.6999 24.0806 75.7265 24.1205C75.7665 24.1605 75.8064 24.1871 75.8596 24.2004C75.9129 24.2137 75.9661 24.227 76.0194 24.227C76.0859 24.227 76.1392 24.2137 76.2057 24.2004C76.259 24.1871 76.2989 24.1605 76.3389 24.1339C76.3655 24.1072 76.4054 24.0939 76.432 24.0673C76.4453 24.054 76.4587 24.0407 76.4853 24.0407C76.4986 24.0407 76.5119 24.054 76.5119 24.054L76.5518 24.1072C76.5252 24.1472 76.4853 24.1738 76.4453 24.2137C76.4054 24.2404 76.3655 24.267 76.3122 24.2936C76.259 24.3202 76.2191 24.3335 76.1658 24.3468C76.1126 24.3202 76.0593 24.3335 76.0061 24.3335Z" fill="#2A62FE"/>
<path d="M78.3088 22.3769C78.3354 22.2704 78.3886 22.1639 78.4419 22.0574C78.4951 21.9643 78.5484 21.8977 78.6282 21.8178C78.6948 21.7513 78.7747 21.7113 78.8679 21.6714C78.961 21.6315 79.0675 21.6182 79.174 21.6182C79.2273 21.6182 79.2805 21.6182 79.3338 21.6315C79.387 21.6448 79.4269 21.6581 79.4802 21.6847L79.4669 21.7646C79.4669 21.7779 79.4536 21.7912 79.4269 21.7912C79.4003 21.7912 79.3737 21.7779 79.3338 21.7779C79.2805 21.7646 79.214 21.7513 79.1607 21.7646C79.0542 21.7646 78.961 21.7779 78.8679 21.8178C78.788 21.8578 78.7081 21.911 78.6416 21.9643C78.575 22.0441 78.5084 22.124 78.4685 22.2172C78.4153 22.337 78.3753 22.4435 78.3354 22.5633V24.2805H78.189V21.6581H78.2555C78.2955 21.6581 78.3088 21.6714 78.3088 21.7113V22.3769Z" fill="#2A62FE"/>
<path d="M81.3571 20.7264C81.3571 20.753 81.3571 20.7797 81.3437 20.793C81.3304 20.8196 81.3171 20.8329 81.3038 20.8462C81.2905 20.8595 81.2639 20.8728 81.2506 20.8861C81.2239 20.8995 81.2106 20.8995 81.184 20.8995C81.1308 20.8995 81.0908 20.8861 81.0509 20.8462C80.9843 20.7796 80.9843 20.6598 81.0509 20.5933C81.0908 20.5667 81.1308 20.54 81.184 20.54C81.2106 20.54 81.2373 20.54 81.2506 20.5534C81.2772 20.5667 81.2905 20.58 81.3038 20.5933C81.3171 20.6066 81.3304 20.6332 81.3437 20.6465C81.3571 20.6732 81.3571 20.6998 81.3571 20.7264ZM81.2506 21.6715V24.2806H81.1175V21.6715H81.2506Z" fill="#2A62FE"/>
<path d="M85.2974 24.2805H85.1643V21.8711H83.5536V23.748C83.5536 23.8146 83.5669 23.8945 83.5802 23.961C83.5936 24.0143 83.6335 24.0675 83.6601 24.1075C83.7 24.1474 83.74 24.174 83.7932 24.1873C83.8465 24.2006 83.8997 24.214 83.953 24.214C84.0195 24.214 84.0728 24.2006 84.1393 24.1873C84.1926 24.174 84.2325 24.1474 84.2724 24.1208C84.2991 24.0941 84.339 24.0808 84.3656 24.0542C84.3789 24.0409 84.3922 24.0276 84.4189 24.0276C84.4322 24.0276 84.4455 24.0409 84.4455 24.0409L84.4854 24.0941C84.4588 24.1341 84.4189 24.1607 84.3789 24.2006C84.339 24.2273 84.2991 24.2539 84.2458 24.2805C84.1926 24.3071 84.1526 24.3204 84.0994 24.3338C84.0461 24.3471 83.9929 24.3471 83.9396 24.3471C83.7932 24.3604 83.6601 24.3071 83.5536 24.214C83.4471 24.0941 83.4072 23.9344 83.4205 23.788V21.8977H83.0078C82.9679 21.8977 82.9546 21.8844 82.9546 21.8578V21.8045L83.4205 21.7779L83.4604 20.7662C83.4604 20.7529 83.4737 20.7396 83.4737 20.7396C83.4871 20.7263 83.4871 20.7263 83.5004 20.7263H83.5536V21.7779H85.2974V24.2805ZM85.4172 20.6864C85.4172 20.713 85.4172 20.7263 85.4039 20.7529C85.3906 20.7795 85.3773 20.7929 85.364 20.8062C85.3507 20.8195 85.3241 20.8328 85.3108 20.8461C85.2708 20.8594 85.2176 20.8594 85.1776 20.8461C85.151 20.8328 85.1377 20.8195 85.1244 20.8062C85.1111 20.7929 85.0978 20.7662 85.0845 20.7529C85.0711 20.7263 85.0711 20.713 85.0711 20.6864C85.0711 20.5932 85.151 20.5 85.2575 20.5C85.2841 20.5 85.3108 20.5 85.3241 20.5133C85.3507 20.5266 85.364 20.5399 85.3773 20.5532C85.3906 20.5666 85.4039 20.5932 85.4172 20.6065C85.4172 20.6464 85.4172 20.6597 85.4172 20.6864Z" fill="#2A62FE"/>
<path d="M88.3324 21.6315C88.5055 21.6315 88.6652 21.6581 88.825 21.7246C88.9714 21.7912 89.0912 21.8844 89.1844 22.0042C89.2909 22.124 89.3574 22.2704 89.4107 22.4302C89.5172 22.7896 89.5172 23.1756 89.4107 23.535C89.3707 23.6948 89.2909 23.8279 89.1844 23.961C89.0779 24.0808 88.9581 24.1607 88.825 24.2272C88.5055 24.347 88.1594 24.347 87.8399 24.2272C87.6935 24.174 87.5737 24.0808 87.4805 23.961C87.374 23.8412 87.2941 23.6948 87.2542 23.535C87.1477 23.1756 87.1477 22.7896 87.2542 22.4302C87.2941 22.2704 87.374 22.124 87.4805 22.0042C87.5737 21.8844 87.7068 21.7912 87.8399 21.7246C87.9996 21.6581 88.1594 21.6181 88.3324 21.6315ZM88.3324 24.2006C88.4922 24.2006 88.6386 24.174 88.7717 24.1074C88.8915 24.0542 89.0113 23.961 89.0912 23.8545C89.1844 23.7347 89.2509 23.6016 89.2776 23.4685C89.3175 23.3087 89.3441 23.1357 89.3441 22.9626C89.3441 22.7896 89.3308 22.6165 89.2776 22.4568C89.2376 22.3104 89.1711 22.1772 89.0912 22.0707C89.0113 21.9642 88.8915 21.8711 88.7717 21.8178C88.4922 21.698 88.1727 21.698 87.8798 21.8178C87.76 21.8711 87.6402 21.9642 87.5604 22.0707C87.4672 22.1905 87.4006 22.3237 87.374 22.4568C87.3341 22.6165 87.3074 22.7896 87.3074 22.9626C87.3074 23.1357 87.3207 23.2954 87.374 23.4685C87.4139 23.6149 87.4805 23.7347 87.5604 23.8545C87.6402 23.961 87.76 24.0409 87.8798 24.1074C88.0263 24.174 88.1727 24.2139 88.3324 24.2006Z" fill="#2A62FE"/>
<path d="M91.4605 22.1771C91.5803 22.0174 91.7267 21.8843 91.8998 21.7778C92.0728 21.6846 92.2592 21.6313 92.4589 21.6313C92.592 21.6313 92.7118 21.658 92.8449 21.6979C92.9514 21.7378 93.0446 21.8044 93.1111 21.8976C93.191 21.9908 93.2443 22.0973 93.2709 22.2037C93.3108 22.3369 93.3241 22.4833 93.3241 22.6164V24.2937H93.191V22.6164C93.191 22.4966 93.1777 22.3635 93.1511 22.2437C93.1245 22.1372 93.0845 22.044 93.018 21.9641C92.9514 21.8843 92.8715 21.831 92.7784 21.7911C92.6719 21.7512 92.5654 21.7245 92.4456 21.7378C92.2592 21.7378 92.0728 21.7911 91.9131 21.8843C91.74 21.9908 91.5936 22.1372 91.4871 22.2969V24.2804H91.354V21.658H91.4206C91.4472 21.658 91.4738 21.6713 91.4738 21.6979V21.7112L91.4605 22.1771Z" fill="#2A62FE"/>
<path d="M14.4394 10.9821C13.867 10.1701 14.0534 8.85225 14.0534 8.85225C14.0534 8.85225 15.0118 9.34478 15.8904 9.15842C16.769 8.97206 18.1135 7.85388 18.1135 7.85388C18.1135 7.85388 16.6891 8.47953 15.5709 8.50615C14.4527 8.53277 13.6674 7.69414 13.6674 7.69414L14.0534 8.46621L13.2414 8.16005L13.5609 8.95875L13.2414 8.77238C13.5076 9.57108 13.9203 10.3165 14.4394 10.9821ZM8.72873 2.42272C8.72873 2.42272 7.67711 2.75551 6.87841 4.19317L5.08134 7.4279C5.08134 7.4279 6.66543 6.11005 8.18296 5.91038C9.70048 5.7107 11.3778 6.7357 12.7489 6.89544C14.12 7.05518 13.8271 6.81557 14.5592 7.13505C14.5592 7.13505 15.5576 6.53602 15.3979 6.45615C15.2381 6.37628 14.9586 6.34966 14.8255 6.24317C14.6924 6.13667 14.719 5.4844 14.3596 5.4844C14.0001 5.4844 13.8937 3.9935 12.5758 3.4211C11.2579 2.84869 10.2729 2.58246 9.59399 1.35779C9.20795 0.652271 8.51575 0.146428 7.73036 0C7.73036 0 5.9466 1.38441 5.7203 3.03506C5.494 4.6857 5.90666 5.52434 5.90666 5.52434C5.90666 5.52434 5.7203 3.43441 6.61218 2.22305C7.50406 1.01169 7.8901 0.758764 7.8901 0.758764C7.8901 0.758764 8.86185 1.17143 9.16802 1.95681C9.47419 2.7422 10.7122 3.50097 11.6041 3.71395C12.4959 3.92694 13.1881 4.51265 13.3878 5.03181C13.5875 5.55096 13.7605 5.91038 14.0001 5.92369C14.2398 5.937 14.3862 5.92369 14.4261 6.18992C14.4527 6.37628 14.5859 6.53602 14.7722 6.58927C14.6657 6.68245 14.5592 6.76232 14.4394 6.82888C14.4394 6.82888 14.3329 6.7357 13.7073 6.69576C13.0816 6.65583 12.5092 6.62921 11.8303 6.3896C11.6307 6.32304 11.3378 6.20323 10.9917 6.08343C11.6041 5.64414 12.3096 5.35129 13.0417 5.23148C12.1898 5.23148 11.3511 5.4844 10.6589 5.96362C10.5258 5.91038 10.3794 5.87044 10.233 5.81719C11.3644 4.61914 12.4161 4.41947 12.4161 4.41947C11.3644 4.41947 10.3128 5.37791 9.96672 5.72401C9.54074 5.5909 9.10146 5.49771 8.66217 5.44447C9.56737 4.35291 11.1381 4.00681 11.1381 4.00681C10.0466 4.13993 9.04821 4.64577 8.27614 5.43116H8.24951C7.59724 5.4844 6.95828 5.73732 6.45244 6.14999C6.45244 6.1633 7.0914 3.35454 8.72873 2.42272ZM26.38 13.6844C25.5813 13.8308 24.9024 14.3233 24.5164 15.0422C23.8375 16.2668 22.8657 16.5331 21.5345 17.1055C20.2034 17.6779 20.0969 19.1688 19.7375 19.1688C19.3781 19.1688 19.418 19.8211 19.2716 19.9276C19.1251 20.034 18.8589 20.0607 18.6992 20.1405C18.5394 20.2204 19.5378 20.8194 19.5378 20.8194C20.2699 20.5 19.9771 20.7396 21.3482 20.5798C22.7193 20.4201 24.3966 19.3951 25.9141 19.5948C27.4316 19.7944 29.0157 21.1123 29.0157 21.1123L27.2186 17.8776C26.4199 16.4399 25.3683 16.1071 25.3683 16.1071C27.0056 17.0389 27.6579 19.8477 27.6579 19.8477C27.1388 19.435 26.5131 19.1821 25.8608 19.1289H25.8475C25.0888 18.3435 24.0771 17.8376 22.9988 17.7045C22.9988 17.7045 24.5563 18.0506 25.4748 19.1422C25.0355 19.1954 24.5962 19.2886 24.1703 19.4217C23.8242 19.0623 22.7725 18.1039 21.7209 18.1039C21.7209 18.1039 22.7725 18.3035 23.904 19.5016C23.7576 19.5548 23.6112 19.5948 23.478 19.648C22.7725 19.1688 21.9472 18.9159 21.0953 18.9159C21.8274 19.049 22.5329 19.3418 23.1453 19.7678C22.7992 19.8876 22.493 20.0074 22.2933 20.074C21.6011 20.3136 21.0287 20.3402 20.4164 20.3801C19.804 20.4201 19.6842 20.5133 19.6842 20.5133C19.5644 20.4467 19.4579 20.3668 19.3514 20.2737C19.5378 20.2204 19.6709 20.074 19.6975 19.8876C19.7242 19.6214 19.8839 19.6347 20.1235 19.6214C20.3631 19.6081 20.5362 19.2353 20.7358 18.7295C20.9355 18.2237 21.6277 17.6379 22.5196 17.4116C23.4115 17.1854 24.6628 16.4399 24.9556 15.6545C25.2485 14.8691 26.2336 14.4698 26.2336 14.4698C26.2336 14.4698 26.6196 14.7094 27.5115 15.9341C28.4034 17.1587 28.217 19.2353 28.217 19.2353C28.217 19.2353 28.6297 18.3967 28.4034 16.7461C28.1771 15.0954 26.3667 13.6844 26.38 13.6844ZM13.8271 7.33472C15.6774 8.18667 17.1816 7.96037 18.1135 6.70907C18.9521 5.53765 20.2699 4.80551 21.7076 4.71233C23.1319 4.59252 25.8475 4.97856 25.8475 4.97856C25.8475 4.97856 25.142 5.1383 23.7576 5.40453C22.3732 5.67077 21.2417 7.41459 21.0553 8.69251C20.869 9.97043 20.6826 10.1169 19.8573 10.3565C19.032 10.5961 17.4346 11.1951 16.8089 12.2201C16.1833 13.2451 16.6092 14.35 16.6092 14.35C16.2898 13.6977 15.6375 13.4315 14.1732 12.5396C12.7089 11.6477 13.2414 9.33147 13.2414 9.33147C13.2414 9.33147 12.4693 11.4214 13.5609 12.7925C14.6524 14.1636 15.105 13.6444 15.9969 14.9091C16.8888 16.1737 18.992 16.6795 20.0836 15.7477C21.1751 14.8159 23.4248 15.9207 23.4248 15.9207C23.4248 15.9207 21.4414 14.097 20.2167 14.8292C18.992 15.5613 17.8206 15.4415 17.2881 14.097C16.7557 12.7526 18.1001 11.7009 20.0836 11.2484C22.067 10.7958 21.2151 9.824 22.1602 7.8805C23.1053 5.937 24.4764 5.76395 25.7677 5.75064C27.0589 5.73732 27.9641 4.43278 27.9641 4.43278C27.9641 4.43278 27.4316 4.55259 23.3316 4.03343C19.2316 3.51428 18.3531 5.44447 17.2083 6.78895C16.0635 8.13342 13.8271 7.33472 13.8271 7.33472ZM20.0703 22.1506L20.4563 21.3785C20.4563 21.3785 19.6709 22.2172 18.5527 22.1905C17.4346 22.1639 16.0102 21.5383 16.0102 21.5383C16.0102 21.5383 17.3547 22.6564 18.2333 22.8428C19.1118 23.0292 20.0703 22.5366 20.0703 22.5366C20.0703 22.5366 20.2566 23.8545 19.6842 24.6665C20.2034 24.0009 20.616 23.2555 20.8823 22.4568L20.5628 22.6431L20.8823 21.8577L20.0703 22.1506ZM32.8228 23.8811C32.2637 23.4019 29.415 21.5649 29.415 21.5649L29.9608 22.2305C29.9608 22.2305 29.029 22.4301 28.1371 24.174C27.5381 25.3321 27.9774 26.7964 27.9774 26.7964C27.9774 26.7964 26.8991 27.5285 25.8475 27.6616C24.7959 27.7947 24.2102 27.5019 23.0654 27.8879C23.0654 27.8879 23.7443 27.3821 24.4631 27.3288C25.1819 27.2756 26.6728 25.9977 27.6047 26.6233C27.6047 26.6233 27.2186 26.2107 26.7527 26.2506C26.2868 26.2905 24.9823 27.0227 24.5164 27.036C24.3034 27.0493 24.0904 27.1025 23.8907 27.1824C23.5047 27.0227 22.7326 26.61 22.493 25.9045C22.1735 24.946 23.0255 21.9243 24.8625 21.5383C24.8625 21.5383 22.706 20.6464 20.8823 21.0058C20.8823 21.0058 21.7608 21.1123 21.9738 21.6314C22.1868 22.1506 21.468 22.4701 21.468 23.4818C21.468 24.0808 21.5479 24.6798 21.7076 25.2655C21.7076 25.2655 21.5079 23.961 21.8274 23.1357C22.1469 22.3103 23.691 21.6581 23.691 21.6581C23.691 21.6581 22.3865 22.8561 22.067 24.5999C21.7742 26.184 22.6527 26.9827 23.4914 27.3288L23.478 27.3421C23.0787 27.3821 22.666 27.2756 22.3332 27.036C21.6277 26.5434 21.4147 26.011 20.7092 26.9162C19.8307 28.0344 19.7508 29.898 18.4596 30.8964C17.6076 31.5619 17.3414 31.5619 17.3414 31.5619C17.3414 31.5619 19.1917 32.334 20.7092 31.8282C22.0936 31.3623 24.2368 28.4869 24.6229 27.9545C24.7293 27.9545 24.8358 27.9678 24.929 27.9811C26.0206 28.1542 27.5914 27.5951 28.1904 27.1425C28.1904 27.1425 28.8293 27.7681 29.2021 27.7947C29.5748 27.8214 30.0939 27.5152 30.0939 27.5152C30.0939 27.5152 29.4816 27.7681 29.1754 27.5418C28.8693 27.3155 28.1771 26.9295 28.43 25.4386C28.6829 23.9477 29.4949 23.5883 29.4949 23.5883C29.4949 23.5883 28.3634 24.6798 28.6563 26.1973C28.6563 26.1973 28.7362 24.0808 30.6397 23.109C30.6397 23.109 32.5034 24.0409 32.8761 24.4535C33.2488 24.8662 33.2488 25.1191 32.8761 25.4519C32.5034 25.7847 32.1173 25.7447 31.9842 25.9844C31.9043 26.1042 31.8511 26.2373 31.8245 26.3704C31.8245 26.3704 32.4102 25.7581 32.8628 25.7048C32.8628 25.7048 32.104 26.2905 31.8245 26.5701C31.5449 26.8496 29.3219 27.5285 29.9076 25.9311C29.9076 25.9311 29.2287 26.4636 29.2819 26.9295C29.3352 27.3954 30.3735 27.3954 31.0524 27.1025C31.7313 26.8097 32.8095 25.8246 33.0358 25.8113C33.2621 25.798 33.4751 25.6249 33.4085 25.4652C33.3287 25.3188 33.3287 25.1457 33.4219 24.9993C33.5283 24.8396 33.3819 24.347 32.8228 23.8811ZM20.5761 31.4554C19.2982 31.8548 18.4462 31.6019 18.4462 31.6019C18.4462 31.6019 20.4164 31.2957 21.255 30.2574C21.255 30.2574 19.7108 31.2291 18.4462 31.2957C18.4462 31.2957 18.9787 31.1093 19.4579 30.4171C19.9371 29.7249 20.1102 28.5535 21.0021 27.2623C21.6144 26.3837 21.6544 27.4353 22.919 27.6084C22.5462 27.8081 22.2001 28.0477 21.894 28.3272C22.5595 28.1542 23.2384 28.0344 23.9173 27.9678C23.4514 28.6334 21.681 31.096 20.5761 31.4554ZM31.6381 24.6133C31.678 24.6133 31.718 24.6266 31.7446 24.6532C31.6647 24.4935 31.4917 24.4269 31.3319 24.5068C31.1722 24.5866 31.1056 24.7597 31.1855 24.9194C31.2654 25.0792 31.4384 25.1457 31.5982 25.0659C31.6647 25.0392 31.718 24.986 31.7446 24.9194C31.718 24.946 31.678 24.9594 31.6381 24.9594C31.5449 24.9594 31.465 24.8795 31.465 24.7863C31.465 24.6931 31.5449 24.6133 31.6381 24.6133ZM2.47226 11.275C2.43232 11.275 2.39239 11.2617 2.36576 11.235C2.44563 11.3948 2.61868 11.4613 2.77842 11.3815C2.93816 11.3016 3.00472 11.1285 2.92485 10.9688C2.84498 10.8091 2.67193 10.7425 2.51219 10.8224C2.44563 10.849 2.39239 10.9022 2.36576 10.9688C2.39239 10.9422 2.43232 10.9289 2.47226 10.9289C2.56544 10.9289 2.64531 11.0087 2.64531 11.1019C2.65862 11.2084 2.57875 11.275 2.47226 11.275C2.48557 11.2883 2.48557 11.2883 2.47226 11.275ZM18.1135 28.5801C19.0053 27.3155 19.4579 27.8347 20.5495 26.4636C21.641 25.0925 20.869 23.0159 20.869 23.0159C20.869 23.0159 21.4014 25.3321 19.9371 26.224C18.4729 27.1158 17.8206 27.3821 17.5011 28.0344C17.5011 28.0344 17.9271 26.9428 17.3014 25.9045C16.6758 24.8662 15.0917 24.2805 14.2531 24.0409C13.4144 23.8012 13.2414 23.6548 13.055 22.3769C12.8687 21.099 11.7372 19.3552 10.3528 19.0889C8.96834 18.8227 8.26283 18.6496 8.26283 18.6496C8.26283 18.6496 10.9784 18.2636 12.4028 18.3834C13.8404 18.4766 15.1583 19.2087 15.9969 20.3668C16.9287 21.6314 18.4329 21.8444 20.2832 20.9925C20.2832 20.9925 18.0336 21.7779 16.8888 20.4467C16.3031 19.7545 15.7839 18.9026 14.8521 18.3035C15.5177 18.2636 16.1699 18.1172 16.7956 17.8776C16.7956 17.8776 16.5427 17.8642 15.6774 17.212C14.3862 16.2136 14.293 14.35 13.4277 13.2318C12.7222 12.3266 12.5092 12.8591 11.8037 13.3516C11.4709 13.5912 11.0716 13.6977 10.6589 13.6578H10.6456C11.4709 13.325 12.3628 12.5263 12.07 10.9289C11.7505 9.17173 10.4459 7.97368 10.4459 7.97368C10.4459 7.97368 11.9768 8.62595 12.3096 9.46459C12.6424 10.3032 12.4294 11.5945 12.4294 11.5945C12.5758 11.0087 12.6557 10.4097 12.6557 9.81069C12.6557 8.79901 11.9235 8.49284 12.1498 7.96037C12.3761 7.4279 13.2414 7.33472 13.2414 7.33472C11.4177 6.962 9.2612 7.86719 9.2612 7.86719C11.1115 8.25323 11.9635 11.275 11.6307 12.2334C11.3911 12.9389 10.619 13.3516 10.233 13.5113C10.0333 13.4448 9.82029 13.3915 9.6073 13.3782C9.14139 13.3649 7.83685 12.6461 7.37094 12.5928C6.90504 12.5396 6.519 12.9522 6.519 12.9522C7.45081 12.3266 8.94172 13.6045 9.66055 13.6578C10.3794 13.711 11.0583 14.2168 11.0583 14.2168C9.92678 13.8175 9.32776 14.1237 8.28945 13.9906C7.25114 13.8574 6.15958 13.1253 6.15958 13.1253C6.15958 13.1253 6.59887 11.661 5.99984 10.5029C5.10796 8.77238 4.17615 8.55939 4.17615 8.55939L4.72192 7.89381C4.72192 7.89381 1.87323 9.71751 1.31414 10.1967C0.755051 10.6759 0.608623 11.1685 0.701805 11.3548C0.794986 11.488 0.794986 11.6743 0.715116 11.8208C0.648558 11.9805 0.848233 12.1535 1.08784 12.1669C1.32745 12.1802 2.4057 13.1652 3.08459 13.4581C3.76349 13.7509 4.8018 13.7509 4.85504 13.285C4.90829 12.8191 4.21608 12.26 4.21608 12.26C4.78848 13.8574 2.57875 13.1919 2.2992 12.899C2.01966 12.6061 1.26089 12.0337 1.26089 12.0337C1.7268 12.087 2.2992 12.6993 2.2992 12.6993C2.27258 12.5529 2.21933 12.4198 2.13946 12.3C2.00635 12.0737 1.607 12.1136 1.24758 11.7675C0.888168 11.4214 0.874856 11.1685 1.24758 10.7691C1.62031 10.3698 3.48394 9.43797 3.48394 9.43797C5.3742 10.4097 5.45407 12.5263 5.45407 12.5263C5.74692 11.0087 4.61543 9.91718 4.61543 9.91718C4.61543 9.91718 5.42744 10.2899 5.68036 11.7675C5.93329 13.2451 5.24108 13.6311 4.93491 13.8707C4.62874 14.1104 4.01641 13.8441 4.01641 13.8441C4.01641 13.8441 4.53556 14.1503 4.9216 14.1237C5.30764 14.097 5.93329 13.4714 5.93329 13.4714C6.53231 13.9373 8.10309 14.4831 9.19464 14.31C9.28782 14.2967 9.39432 14.2834 9.50081 14.2834C9.80698 14.7094 11.2446 16.6396 12.5226 17.6246C11.9368 17.598 11.3511 17.6246 10.7654 17.7045C6.66543 18.237 6.13296 18.1039 6.13296 18.1039C6.13296 18.1039 7.02484 19.4084 8.32938 19.4217C9.63393 19.435 11.005 19.6081 11.9368 21.5516C12.8687 23.4951 12.0167 24.4801 14.0135 24.9194C16.0102 25.3587 17.3414 26.4236 16.8089 27.7681C16.2764 29.1126 15.105 29.2324 13.8803 28.5003C12.6557 27.7681 10.6722 29.5918 10.6722 29.5918C10.6722 29.5918 12.9219 28.4869 14.0135 29.4188C15.105 30.3506 17.2216 29.8447 18.1135 28.5801ZM10.2063 14.2967C10.8852 14.3633 11.5641 14.4831 12.2297 14.6561C11.9102 14.3766 11.5641 14.137 11.2047 13.9373C12.4826 13.7643 12.5092 12.6993 13.1216 13.5912C14.0135 14.8691 14.1732 16.0539 14.6657 16.7461C15.1583 17.4383 15.6774 17.6246 15.6774 17.6246C14.4128 17.5581 12.882 16.5863 12.882 16.5863C13.7206 17.6246 15.6774 17.9308 15.6774 17.9308C15.6774 17.9308 14.9453 18.1571 13.8138 17.8642C13.7472 17.8509 13.6807 17.8243 13.6141 17.811L13.5476 17.7844C12.4427 17.4116 10.6589 14.949 10.2063 14.2967Z" fill="#2A62FE"/>
</svg>
