<svg width="81" height="80" viewBox="0 0 81 80" fill="none" xmlns="http://www.w3.org/2000/svg">
<path d="M63.9814 34.3874C63.9814 34.3612 63.9758 34.3368 63.9739 34.3112C63.972 34.2855 63.9708 34.2693 63.9677 34.2487C63.9571 34.1684 63.9361 34.0898 63.9052 34.0149V34.0112C63.9052 34.0068 63.9002 34.0043 63.8983 33.9999C63.8964 33.9956 63.8864 33.9793 63.8814 33.9687C63.8764 33.958 63.8639 33.9349 63.8539 33.918C63.8312 33.8792 63.8057 33.842 63.7777 33.8068C63.7658 33.7912 63.7539 33.7762 63.7408 33.7618C63.7277 33.7474 63.7183 33.733 63.7052 33.7205L55.4014 25.5874L55.3952 25.5812L55.3852 25.5743C55.3286 25.5211 55.2656 25.4751 55.1977 25.4374C55.1814 25.4281 55.1652 25.4187 55.1483 25.4106C55.0762 25.3745 54.9997 25.348 54.9208 25.3318C54.912 25.3318 54.9027 25.3318 54.8933 25.3318C54.8426 25.3224 54.7911 25.3171 54.7395 25.3162C54.7189 25.3162 54.6996 25.3212 54.6771 25.3224C54.6545 25.3237 54.6327 25.3262 54.6102 25.3293C54.447 25.351 54.2925 25.4157 54.1627 25.5168C54.1477 25.5287 54.1333 25.5405 54.1189 25.553C54.0577 25.6056 54.0035 25.6659 53.9577 25.7324L53.9533 25.7406C53.9115 25.8063 53.8781 25.8771 53.8539 25.9512C53.8477 25.9699 53.842 25.988 53.8364 26.0074C53.8137 26.0863 53.8015 26.1678 53.8002 26.2499V43.0405L47.1583 50.2499L41.1252 44.8162C40.9529 44.6609 40.7293 44.5749 40.4974 44.5749C40.2655 44.5749 40.0418 44.6609 39.8696 44.8162L33.8396 50.2537L29.4077 45.4412C29.3251 45.3474 29.2247 45.2711 29.1123 45.2168C28.9999 45.1624 28.8777 45.131 28.753 45.1245C28.6283 45.1179 28.5035 45.1364 28.386 45.1788C28.2686 45.2211 28.1607 45.2865 28.0689 45.3711C27.977 45.4557 27.903 45.5579 27.8511 45.6715C27.7993 45.7851 27.7707 45.9079 27.767 46.0327C27.7632 46.1576 27.7845 46.2819 27.8295 46.3984C27.8745 46.5149 27.9423 46.6212 28.0289 46.7112L32.4471 51.5074L18.8939 63.7243V36.7868L25.5733 44.0368C25.5777 44.0412 25.5827 44.0443 25.5871 44.0487C25.6168 44.0787 25.6485 44.1067 25.6821 44.1324C25.6983 44.1455 25.7127 44.1599 25.7296 44.1718C25.7709 44.1996 25.8143 44.224 25.8596 44.2449C25.8708 44.2505 25.8814 44.258 25.8927 44.2631C26.0097 44.3137 26.1358 44.3399 26.2633 44.3399C26.3739 44.3385 26.4833 44.3173 26.5864 44.2774C26.5921 44.2774 26.5983 44.2774 26.6039 44.2743L26.6121 44.2699C26.689 44.2381 26.7613 44.196 26.8271 44.1449C26.8427 44.1331 26.8564 44.1212 26.8708 44.1087C26.9317 44.0578 26.9859 43.9994 27.0321 43.9349L27.0383 43.9274C27.0835 43.8587 27.1195 43.7843 27.1452 43.7062C27.1514 43.6874 27.1571 43.6693 27.1627 43.6506C27.1867 43.5693 27.1996 43.4852 27.2008 43.4006V17.7499H53.8002V22.383C53.8002 22.6317 53.8989 22.8701 54.0748 23.046C54.2506 23.2218 54.489 23.3205 54.7377 23.3205C54.9863 23.3205 55.2248 23.2218 55.4006 23.046C55.5764 22.8701 55.6752 22.6317 55.6752 22.383V16.8124C55.6752 16.5638 55.5764 16.3253 55.4006 16.1495C55.2248 15.9737 54.9863 15.8749 54.7377 15.8749H45.4952L41.1564 11.6249C40.9812 11.4531 40.7456 11.3569 40.5002 11.3569C40.2548 11.3569 40.0192 11.4531 39.8439 11.6249L35.5052 15.8749H26.2627C26.014 15.8749 25.7756 15.9737 25.5998 16.1495C25.4239 16.3253 25.3252 16.5638 25.3252 16.8124V25.8562L17.3002 33.7181C17.2871 33.7312 17.2764 33.7462 17.2646 33.7593C17.2527 33.7724 17.2396 33.7887 17.2277 33.8043C17.1996 33.8395 17.1741 33.8767 17.1514 33.9155C17.1421 33.9318 17.1333 33.948 17.1246 33.9649C17.1158 33.9818 17.1121 33.9862 17.1071 33.9968C17.1021 34.0074 17.1021 34.0037 17.1002 34.008V34.0118C17.0693 34.0867 17.0483 34.1652 17.0377 34.2455C17.0346 34.2668 17.0333 34.2874 17.0314 34.3081C17.0296 34.3287 17.0239 34.358 17.0239 34.3843V65.828C17.0239 65.8405 17.0271 65.8518 17.0277 65.8643C17.0283 65.8768 17.0314 65.903 17.0333 65.9224C17.0403 65.9957 17.0561 66.0679 17.0802 66.1374C17.0833 66.1462 17.0802 66.1555 17.0858 66.1649L17.0914 66.1743C17.1232 66.2514 17.1653 66.324 17.2164 66.3899C17.2277 66.4055 17.2402 66.4193 17.2527 66.4337C17.3029 66.4937 17.3604 66.5473 17.4239 66.5931L17.4352 66.6024C17.5039 66.6479 17.5783 66.684 17.6564 66.7099C17.6746 66.7162 17.6927 66.7218 17.7114 66.7268C17.7926 66.7511 17.8767 66.7641 17.9614 66.7655H63.0489C63.1336 66.7641 63.2177 66.7511 63.2989 66.7268C63.3177 66.7218 63.3358 66.7162 63.3539 66.7099C63.4321 66.684 63.5065 66.6479 63.5752 66.6024L63.5864 66.5931C63.6499 66.5473 63.7075 66.4937 63.7577 66.4337C63.7702 66.4193 63.7821 66.4049 63.7939 66.3899C63.8451 66.324 63.8871 66.2514 63.9189 66.1743L63.9246 66.1649C63.9277 66.1562 63.9246 66.1468 63.9302 66.1374C63.9543 66.0679 63.97 65.9957 63.9771 65.9224C63.9771 65.903 63.9821 65.8837 63.9827 65.8643C63.9833 65.8449 63.9864 65.8405 63.9864 65.828L63.9814 34.3874ZM40.5002 13.6062L42.8164 15.8749H38.1839L40.5002 13.6062ZM55.6752 35.3249H60.9058L55.6752 41.0043V35.3249ZM55.6752 33.4499V28.4805L60.7502 33.4499H55.6752ZM55.4252 44.043L62.1039 36.793V63.7306L48.5508 51.5062L55.4252 44.043ZM20.0946 35.3249H25.3252V41.0043L20.0946 35.3249ZM25.3252 28.4805V33.4499H20.2502L25.3252 28.4805ZM20.3971 64.8937L34.4077 52.2687L40.5002 46.7743L46.5914 52.2649L60.6021 64.8899L20.3971 64.8937ZM49.042 24.9999C49.042 25.2486 48.9433 25.487 48.7675 25.6628C48.5916 25.8387 48.3532 25.9374 48.1046 25.9374H32.8958C32.6472 25.9374 32.4087 25.8387 32.2329 25.6628C32.0571 25.487 31.9583 25.2486 31.9583 24.9999C31.9583 24.7513 32.0571 24.5128 32.2329 24.337C32.4087 24.1612 32.6472 24.0624 32.8958 24.0624H48.1046C48.3532 24.0624 48.5916 24.1612 48.7675 24.337C48.9433 24.5128 49.042 24.7513 49.042 24.9999ZM49.042 30.3187C49.042 30.5673 48.9433 30.8058 48.7675 30.9816C48.5916 31.1574 48.3532 31.2562 48.1046 31.2562H32.8958C32.6472 31.2562 32.4087 31.1574 32.2329 30.9816C32.0571 30.8058 31.9583 30.5673 31.9583 30.3187C31.9583 30.07 32.0571 29.8316 32.2329 29.6558C32.4087 29.4799 32.6472 29.3812 32.8958 29.3812H48.1046C48.3532 29.3812 48.5916 29.4799 48.7675 29.6558C48.9433 29.8316 49.042 30.07 49.042 30.3187ZM49.042 35.6374C49.042 35.8861 48.9433 36.1245 48.7675 36.3003C48.5916 36.4762 48.3532 36.5749 48.1046 36.5749H45.9689C45.7203 36.5749 45.4818 36.4762 45.306 36.3003C45.1302 36.1245 45.0314 35.8861 45.0314 35.6374C45.0314 35.3888 45.1302 35.1503 45.306 34.9745C45.4818 34.7987 45.7203 34.6999 45.9689 34.6999H48.1039C48.2271 34.6998 48.3491 34.724 48.4629 34.7711C48.5767 34.8182 48.6801 34.8872 48.7672 34.9743C48.8544 35.0614 48.9235 35.1647 48.9706 35.2785C49.0178 35.3923 49.042 35.5143 49.042 35.6374ZM43.0002 34.6999C43.2488 34.6999 43.4873 34.7987 43.6631 34.9745C43.8389 35.1503 43.9377 35.3888 43.9377 35.6374C43.9377 35.8861 43.8389 36.1245 43.6631 36.3003C43.4873 36.4762 43.2488 36.5749 43.0002 36.5749H32.8958C32.6472 36.5749 32.4087 36.4762 32.2329 36.3003C32.0571 36.1245 31.9583 35.8861 31.9583 35.6374C31.9583 35.3888 32.0571 35.1503 32.2329 34.9745C32.4087 34.7987 32.6472 34.6999 32.8958 34.6999H43.0002Z" fill="#7939EE"/>
</svg>
