<svg width="81" height="80" viewBox="0 0 81 80" fill="none" xmlns="http://www.w3.org/2000/svg">
<path d="M19.772 20.6187C19.772 21.3997 20.0036 22.1631 20.4375 22.8125C20.8714 23.4619 21.4881 23.968 22.2096 24.2668C22.9311 24.5657 23.7251 24.6439 24.4911 24.4916C25.2571 24.3392 25.9607 23.9631 26.5129 23.4109C27.0652 22.8586 27.4412 22.155 27.5936 21.389C27.746 20.6231 27.6678 19.8291 27.3689 19.1076C27.07 18.386 26.5639 17.7693 25.9145 17.3354C25.2652 16.9015 24.5017 16.6699 23.7207 16.6699C22.6738 16.6711 21.6701 17.0875 20.9298 17.8278C20.1895 18.5681 19.7731 19.5718 19.772 20.6187ZM25.7951 20.6187C25.7951 21.0288 25.6735 21.4298 25.4456 21.7708C25.2177 22.1118 24.8939 22.3776 24.5149 22.5346C24.136 22.6915 23.719 22.7326 23.3168 22.6526C22.9145 22.5726 22.545 22.3751 22.255 22.085C21.965 21.795 21.7675 21.4255 21.6874 21.0232C21.6074 20.621 21.6485 20.204 21.8055 19.8251C21.9624 19.4462 22.2282 19.1223 22.5692 18.8944C22.9103 18.6666 23.3112 18.5449 23.7213 18.5449C24.2711 18.5456 24.7982 18.7643 25.187 19.153C25.5757 19.5418 25.7944 20.0689 25.7951 20.6187ZM49.2832 20.6187C49.2832 19.8377 49.0516 19.0742 48.6177 18.4249C48.1838 17.7755 47.5671 17.2694 46.8456 16.9705C46.1241 16.6716 45.3301 16.5934 44.5641 16.7458C43.7981 16.8982 43.0945 17.2742 42.5423 17.8265C41.99 18.3787 41.614 19.0823 41.4616 19.8483C41.3092 20.6143 41.3874 21.4083 41.6863 22.1298C41.9852 22.8513 42.4913 23.468 43.1407 23.9019C43.79 24.3358 44.5535 24.5674 45.3345 24.5674C46.3814 24.5663 47.3851 24.1499 48.1254 23.4096C48.8657 22.6693 49.2821 21.6656 49.2832 20.6187ZM43.2607 20.6187C43.2607 20.2085 43.3823 19.8076 43.6102 19.4666C43.8381 19.1255 44.162 18.8597 44.5409 18.7028C44.9198 18.5458 45.3368 18.5048 45.739 18.5848C46.1413 18.6648 46.5108 18.8623 46.8008 19.1523C47.0909 19.4423 47.2884 19.8118 47.3684 20.2141C47.4484 20.6164 47.4073 21.0333 47.2504 21.4123C47.0934 21.7912 46.8276 22.1151 46.4866 22.3429C46.1456 22.5708 45.7446 22.6924 45.3345 22.6924C44.7847 22.6918 44.2576 22.4731 43.8688 22.0843C43.4801 21.6955 43.2614 21.1685 43.2607 20.6187ZM68.3857 31.5893C68.2347 31.5098 68.0648 31.473 67.8945 31.4829C67.7241 31.4928 67.5596 31.5491 67.4188 31.6456L56.1782 39.3462V32.8062C56.1769 31.5634 55.6826 30.3719 54.8038 29.4931C53.925 28.6143 52.7335 28.12 51.4907 28.1187H50.6745C52.1061 27.0963 53.2149 25.6853 53.8698 24.0525C54.5246 22.4197 54.6979 20.6335 54.3694 18.9053C54.0408 17.177 53.2241 15.5791 52.0158 14.3005C50.8075 13.0219 49.2582 12.1162 47.5513 11.6905C45.8443 11.2649 44.0512 11.3371 42.384 11.8986C40.7169 12.4602 39.2454 13.4875 38.1439 14.8592C37.0423 16.2308 36.3567 17.8892 36.1682 19.6383C35.9797 21.3874 36.2961 23.1538 37.0801 24.7287C37.1351 24.8389 37.2112 24.9371 37.3042 25.0179C37.3972 25.0987 37.5052 25.1603 37.622 25.1993C37.7388 25.2384 37.8621 25.254 37.9849 25.2454C38.1078 25.2367 38.2277 25.204 38.3379 25.149C38.4481 25.094 38.5464 25.0178 38.6271 24.9249C38.7079 24.8319 38.7695 24.7239 38.8086 24.6071C38.8476 24.4903 38.8632 24.367 38.8546 24.2441C38.846 24.1213 38.8132 24.0014 38.7582 23.8912C38.2498 22.8754 37.9867 21.7546 37.9901 20.6187C37.9894 18.9312 38.5699 17.295 39.6338 15.9852C40.6977 14.6753 42.1803 13.7719 43.832 13.4267C45.4838 13.0814 47.2041 13.3156 48.7036 14.0897C50.203 14.8638 51.3902 16.1306 52.0653 17.6771C52.7405 19.2236 52.8625 20.9555 52.4109 22.5814C51.9593 24.2073 50.9615 25.6281 49.5854 26.6048C48.2094 27.5815 46.5389 28.0546 44.855 27.9444C43.1712 27.8343 41.5766 27.1476 40.3395 25.9999C40.1571 25.8306 39.915 25.7406 39.6663 25.7498C39.4177 25.759 39.1829 25.8667 39.0135 26.049C38.8442 26.2313 38.7543 26.4735 38.7635 26.7221C38.7727 26.9708 38.8803 27.2056 39.0626 27.3749C39.3545 27.642 39.6633 27.89 39.987 28.1174H29.0626C30.2599 27.267 31.2363 26.1425 31.9104 24.8378C32.5845 23.533 32.9367 22.086 32.9376 20.6174C32.9376 20.3688 32.8388 20.1303 32.663 19.9545C32.4872 19.7787 32.2487 19.6799 32.0001 19.6799C31.7515 19.6799 31.513 19.7787 31.3372 19.9545C31.1614 20.1303 31.0626 20.3688 31.0626 20.6174C31.0609 22.4176 30.3975 24.1544 29.1986 25.4973C27.9997 26.8402 26.349 27.6955 24.5605 27.9005C22.772 28.1054 20.9706 27.6457 19.4989 26.6089C18.0273 25.572 16.9882 24.0303 16.5794 22.2772C16.1705 20.524 16.4204 18.6817 17.2815 17.1008C18.1426 15.5199 19.5548 14.3108 21.2495 13.7034C22.9441 13.096 24.8029 13.1328 26.4722 13.8068C28.1415 14.4808 29.5047 15.7449 30.3026 17.3587C30.3567 17.4699 30.4323 17.5692 30.525 17.6511C30.6177 17.7329 30.7257 17.7956 30.8428 17.8355C30.9598 17.8755 31.0836 17.8918 31.207 17.8837C31.3304 17.8756 31.4509 17.8432 31.5617 17.7883C31.6725 17.7334 31.7714 17.6571 31.8526 17.5638C31.9338 17.4705 31.9957 17.3621 32.0348 17.2448C32.074 17.1275 32.0895 17.0036 32.0805 16.8803C32.0716 16.7569 32.0383 16.6366 31.9826 16.5262C31.362 15.2683 30.4626 14.1687 29.3527 13.311C28.2429 12.4534 26.9519 11.8604 25.5782 11.5771C24.2045 11.2939 22.7843 11.3279 21.4257 11.6765C20.0671 12.0252 18.8061 12.6793 17.7385 13.5891C16.671 14.4989 15.8252 15.6403 15.2655 16.9264C14.7059 18.2125 14.4471 19.6094 14.509 21.0107C14.5709 22.4119 14.9517 23.7805 15.6226 25.0123C16.2934 26.2441 17.2365 27.3065 18.3801 28.1187H16.8032C15.5604 28.12 14.3689 28.6143 13.4901 29.4931C12.6113 30.3719 12.117 31.5634 12.1157 32.8062V55.3062C12.117 56.549 12.6113 57.7405 13.4901 58.6193C14.3689 59.4981 15.5604 59.9924 16.8032 59.9937H19.0138L24.0882 68.1568C24.1723 68.2923 24.2896 68.4041 24.4289 68.4816C24.5682 68.5592 24.725 68.5999 24.8845 68.5999C24.907 68.5999 24.9288 68.5999 24.9507 68.5999C25.121 68.5878 25.2848 68.5294 25.4243 68.4311C25.5639 68.3327 25.6739 68.1981 25.7426 68.0418L29.2782 59.9937H51.4907C52.7335 59.9924 53.925 59.4981 54.8038 58.6193C55.6826 57.7405 56.1769 56.549 56.1782 55.3062V50.0343L67.4176 57.7299C67.5584 57.8263 67.7228 57.8823 67.8931 57.8921C68.0634 57.9019 68.2332 57.8651 68.3841 57.7855C68.535 57.706 68.6614 57.5868 68.7495 57.4408C68.8377 57.2947 68.8844 57.1274 68.8845 56.9568V32.4187C68.8845 32.248 68.8378 32.0805 68.7496 31.9343C68.6614 31.7882 68.5349 31.6689 68.3838 31.5893H68.3857ZM54.3032 55.3062C54.3032 56.0521 54.0069 56.7675 53.4795 57.2949C52.952 57.8224 52.2366 58.1187 51.4907 58.1187H28.6657C28.4834 58.1188 28.305 58.172 28.1525 58.2719C28 58.3718 27.8799 58.5141 27.807 58.6812L24.7445 65.6581L20.3307 58.5624C20.2465 58.4273 20.1293 58.3158 19.9901 58.2385C19.8509 58.1612 19.6943 58.1206 19.5351 58.1205H16.8038C16.0579 58.1205 15.3426 57.8242 14.8151 57.2968C14.2877 56.7693 13.9913 56.054 13.9913 55.308V32.8081C13.9913 32.0621 14.2877 31.3468 14.8151 30.8193C15.3426 30.2919 16.0579 29.9956 16.8038 29.9956H51.4913C52.2373 29.9956 52.9526 30.2919 53.4801 30.8193C54.0075 31.3468 54.3038 32.0621 54.3038 32.8081V55.308L54.3032 55.3062ZM67.0095 55.1781L56.1782 47.7618V41.6193L67.0095 34.1981V55.1781ZM47.4795 55.3062C47.4795 55.5548 47.3807 55.7933 47.2049 55.9691C47.0291 56.1449 46.7906 56.2437 46.542 56.2437H38.0001C37.7515 56.2437 37.513 56.1449 37.3372 55.9691C37.1614 55.7933 37.0626 55.5548 37.0626 55.3062C37.0626 55.0575 37.1614 54.8191 37.3372 54.6433C37.513 54.4674 37.7515 54.3687 38.0001 54.3687H46.542C46.7906 54.3687 47.0291 54.4674 47.2049 54.6433C47.3807 54.8191 47.4795 55.0575 47.4795 55.3062ZM52.4282 55.3062C52.4282 55.5548 52.3295 55.7933 52.1536 55.9691C51.9778 56.1449 51.7394 56.2437 51.4907 56.2437H49.7707C49.5221 56.2437 49.2836 56.1449 49.1078 55.9691C48.932 55.7933 48.8332 55.5548 48.8332 55.3062C48.8332 55.0575 48.932 54.8191 49.1078 54.6433C49.2836 54.4674 49.5221 54.3687 49.7707 54.3687H51.4907C51.7394 54.3687 51.9778 54.4674 52.1536 54.6433C52.3295 54.8191 52.4282 55.0575 52.4282 55.3062ZM41.057 44.0562C41.0571 43.8915 41.0138 43.7297 40.9315 43.5871C40.8492 43.4445 40.7308 43.326 40.5882 43.2437L31.9282 38.2437C31.7857 38.1614 31.6239 38.118 31.4593 38.1181C31.2947 38.1181 31.133 38.1615 30.9905 38.2438C30.8479 38.3262 30.7296 38.4446 30.6473 38.5872C30.5651 38.7298 30.5219 38.8916 30.522 39.0562V49.0562C30.5219 49.2208 30.5651 49.3825 30.6473 49.5251C30.7296 49.6677 30.8479 49.7862 30.9905 49.8685C31.133 49.9509 31.2947 49.9943 31.4593 49.9943C31.6239 49.9943 31.7857 49.951 31.9282 49.8687L40.5882 44.8687C40.7308 44.7863 40.8492 44.6679 40.9315 44.5253C41.0138 44.3826 41.0571 44.2208 41.057 44.0562ZM32.397 47.4312V40.6812L38.2445 44.0562L32.397 47.4312Z" fill="#7939EE"/>
</svg>
